<?xml version="1.0" encoding="UTF-8"?>
<svg width="18px" height="18px" viewBox="0 0 18 18" version="1.1" xmlns="http://www.w3.org/2000/svg" xmlns:xlink="http://www.w3.org/1999/xlink">
    <g id="Icon-/-Edit" stroke="none" stroke-width="1" fill="none" fill-rule="evenodd">
        <path d="M10.39,1.99995153 L8.389,3.99995153 L2,4 L2,16 L14,16 L14,9.70195153 L16,7.70195153 L16,17 C16,17.5128358 15.6139598,17.9355072 15.1166211,17.9932723 L15,18 L1,18 C0.44771525,18 0,17.5522847 0,17 L0,17 L0,3 C0,2.44771525 0.44771525,2 1,2 L1,2 L10.39,1.99995153 Z" id="Combined-Shape" fill="#FFFFFF" fill-rule="nonzero"></path>
        <path d="M9.55136598,-0.0049806622 L12.551366,-0.0049806622 C12.8275084,-0.0049806622 13.051366,0.218876963 13.051366,0.495019338 L13.051366,10.9950193 L13.051366,10.9950193 L11.4673911,13.3709816 C11.3142149,13.600746 11.0037802,13.6628329 10.7740159,13.5096567 C10.7190897,13.4730392 10.6719583,13.4259078 10.6353408,13.3709816 L9.05136598,10.9950193 L9.05136598,10.9950193 L9.05136598,0.495019338 C9.05136598,0.218876963 9.2752236,-0.0049806622 9.55136598,-0.0049806622 Z" id="Rectangle" fill="#FFFFFF" transform="translate(11.051366, 6.995019) rotate(-315.000000) translate(-11.051366, -6.995019) "></path>
    </g>
</svg>