<?xml version="1.0" encoding="UTF-8"?>
<svg width="265px" height="485px" viewBox="0 0 265 485" version="1.1" xmlns="http://www.w3.org/2000/svg" xmlns:xlink="http://www.w3.org/1999/xlink">
    <defs>
        <polygon id="path-1" points="0 0 64.9106432 0 64.9106432 61.2007169 0 61.2007169"></polygon>
        <polygon id="path-3" points="0 0 39.9745929 0 39.9745929 41.7625604 0 41.7625604"></polygon>
    </defs>
    <g id="Location" stroke="none" stroke-width="1" fill="none" fill-rule="evenodd">
        <g id="ErrorPage_Browser" transform="translate(-380.000000, -345.000000)">
            <g id="Ilustration-/-Error" transform="translate(380.000000, 345.000000)">
                <polygon id="Fill-1" fill="#000000" points="12.2263881 422.958203 265 422.958203 265 418.771677 12.2263881 418.771677"></polygon>
                <g id="Group-76">
                    <path d="M137.93389,69.6039299 C138.888867,71.7717128 141.423728,72.7563836 143.595388,71.8026931 C145.767049,70.8494212 146.753481,68.3190851 145.798084,66.1513022 C144.843107,63.9835192 142.308246,62.9992671 140.136586,63.952539 C137.964925,64.9058108 136.978913,67.4361469 137.93389,69.6039299" id="Fill-2" fill="#F16704"></path>
                    <path d="M141.85999,63.8364047 C141.316445,63.8364047 140.764513,63.9465104 140.236068,64.1780252 C139.24628,64.6125866 138.485067,65.4063518 138.092927,66.4119553 C137.700786,67.418396 137.724692,68.5165217 138.160031,69.5045417 C138.595369,70.4925618 139.390135,71.2524162 140.397956,71.6438563 C141.405778,72.0352965 142.505868,72.0110146 143.495655,71.5768719 C145.538978,70.6796995 146.470469,68.2904493 145.572111,66.250774 C144.905682,64.7381823 143.417646,63.8364047 141.85999,63.8364047 M141.867539,72.4145957 C141.310574,72.4145957 140.753189,72.3111885 140.218872,72.1035368 C139.088166,71.6643703 138.196519,70.8119937 137.707916,69.7034017 C137.219314,68.5943911 137.192472,67.3622966 137.632424,66.2336093 C138.072376,65.1045033 138.926277,64.214448 140.036852,63.7267178 C142.331397,62.7194397 145.015565,63.7635592 146.024226,66.0519141 C147.032466,68.3406876 145.987738,71.0217386 143.69487,72.0281794 C143.109386,72.2856507 142.488672,72.4145957 141.867539,72.4145957" id="Fill-4" fill="#F16704"></path>
                    <path d="M205.097157,104.601274 C198.79691,101.910594 181.109497,103.042212 192.219019,82.372498 C192.219019,82.372498 174.050972,85.2398494 173.563628,82.6986283 L141.820818,63.3920469 C134.538752,49.2386598 140.881358,10.6619198 179.767832,23.6284268 C201.062936,30.7287742 203.293731,51.3951392 201.122491,62.7418795 C200.2753,67.1691303 198.871563,71.3954279 197.023681,74.9732327 C192.969748,88.6158636 212.071382,72.1649113 228.50856,91.1738307 C239.210424,105.621949 217.163334,140.548876 220.131437,169.556475 C220.170022,169.932425 219.638641,170.043786 219.522047,169.684164 C208.37352,135.190961 220.464442,111.16449 205.097157,104.601274" id="Fill-6" fill="#2B2A26"></path>
                    <path d="M128.346459,111.981784 C116.185497,139.450416 126.28594,187.784272 137.364846,189.872511 C160.972109,194.331998 144.747148,177.037042 144.747148,177.037042 L155.139075,174.208207 L147.853235,166.873414 C147.853235,166.873414 151.07214,131.550861 150.175041,118.880341 C149.259068,105.925556 134.543533,97.9937646 128.346459,111.981784" id="Fill-8" fill="#BC9084"></path>
                    <path d="M72.0170831,130.461861 L67.6771179,134.030037 L64.8583215,138.925342 C64.8583215,138.925342 66.4184945,140.47017 67.8566217,138.930365 C69.2951683,137.392655 69.9494344,136.718624 70.7584596,135.681622 C71.4253078,134.827989 74.0012709,132.481023 74.0935392,132.076604 C74.1849687,131.673023 72.0170831,130.461861 72.0170831,130.461861" id="Fill-10" fill="#BC9084"></path>
                    <path d="M74.5610878,131.013227 L70.3125521,134.693183 L67.6216731,139.660914 C67.6216731,139.660914 69.2237862,141.162202 70.6212315,139.586813 C72.0186768,138.011004 72.6532311,137.320228 73.4349952,136.264805 C74.0804538,135.394845 76.5947649,132.981313 76.6757094,132.57522 C76.7574926,132.168708 74.5610878,131.013227 74.5610878,131.013227" id="Fill-12" fill="#BC9084"></path>
                    <path d="M77.7341945,130.763584 L73.4881753,134.441866 L70.796038,139.410434 C70.796038,139.410434 72.3985706,140.912141 73.7943382,139.336751 C75.1922029,137.761362 75.8284348,137.070167 76.6106183,136.013487 C77.2552382,135.144365 79.7695492,132.732926 79.8509131,132.325577 C79.9326964,131.916972 77.7341945,130.763584 77.7341945,130.763584" id="Fill-14" fill="#BC9084"></path>
                    <path d="M124.748582,184.924751 C124.748582,184.924751 112.53897,176.521137 103.468577,164.659035 C94.3994426,152.797352 90.9356069,149.664157 90.9356069,149.664157 C90.9356069,149.664157 93.7762122,143.376832 95.8275042,143.666121 C97.8804738,143.954992 101.600144,147.262347 104.143814,149.01357 C106.687483,150.764375 136.034253,170.216229 136.94729,177.587445 C137.860327,184.958242 124.748582,184.924751 124.748582,184.924751" id="Fill-16" fill="#BC9084"></path>
                    <path d="M96.3673157,144.788487 C96.3002114,143.60998 87.2562408,131.491663 85.8621507,130.251196 C84.4680606,129.010728 74.7312389,128.300693 73.7045444,128.156258 C72.6782693,128.011823 67.6462919,131.485383 67.1945967,132.013304 C66.2337482,133.129432 64.3007274,136.201923 64.3007274,136.201923 C64.3007274,136.201923 65.4763094,137.760148 68.2401642,134.979876 C69.5575039,133.655678 70.1366971,132.913826 70.1366971,132.913826 L75.3926348,132.503965 L79.4235012,135.091656 C79.4235012,135.091656 83.3054801,141.695482 86.0009725,141.867967 C88.6981426,142.037521 96.5195583,147.420974 96.3673157,144.788487" id="Fill-18" fill="#BC9084"></path>
                    <path d="M122.634548,197.318708 C122.634548,197.319126 108.499464,243.377187 125.07127,328.033759 C128.59466,346.032888 127.471084,348.70431 129.458208,364.03746 C135.627602,411.638675 135.794523,449.180506 137.256557,450.639929 C140.586184,453.963611 146.414604,453.58808 149.943028,452.414178 C151.405061,451.927704 160.233879,380.24685 158.771846,368.083318 C156.649675,350.42874 150.53019,346.705244 150.416532,334.358762 C150.253804,316.681157 162.924758,292.159002 159.677333,272.244537 C156.265503,251.323632 126.51443,187.175593 122.634548,197.318708" id="Fill-20" fill="#BC9084"></path>
                    <path d="M173.824328,198.129596 C173.824328,198.129596 188.144787,227.808294 189.499453,241.43083 C190.79792,254.492371 191.756671,332.412404 191.756671,332.412404 C191.756671,332.412404 202.141887,358.685364 205.302496,371.334951 C208.463105,383.984957 205.315078,450.465309 205.315078,450.465309 L195.917133,451.126361 L151.119616,269.163213 L126.712136,198.129596 L173.824328,198.129596 Z" id="Fill-22" fill="#BC9084"></path>
                    <path d="M158.771762,276.553603 C155.111227,259.171986 140.169215,235.661714 140.169215,235.661714" id="Fill-24" fill="#8399AF"></path>
                    <path d="M122.637651,194.812109 C131.649748,195.756171 164.041791,195.802641 182.787773,185.75791 C184.814321,191.997927 204.864641,218.743545 208.277729,226.273012 C229.388715,272.843504 196.627599,310.760866 204.411268,365.772649 C166.801452,380.564063 150.589913,376.038429 123.50036,371.678162 C106.145952,264.140973 113.662882,244.084166 119.213659,211.986493 C119.439716,211.103973 122.530704,195.76873 122.637651,194.812109" id="Fill-26" fill="#F3F5F7"></path>
                    <g id="Group-30" transform="translate(0.000000, 246.255641)">
                        <mask id="mask-2" fill="white">
                            <use xlink:href="#path-1"></use>
                        </mask>
                        <g id="Clip-29"></g>
                        <path d="M30.5454196,1.67627736 C24.7190961,1.67627736 19.4002482,3.17002969 14.6647875,6.14581208 C8.00133892,10.3327563 3.83081191,16.4584806 2.26854189,24.3530119 C0.704594265,32.2575908 2.26267027,39.6271318 6.90041038,46.2581697 L6.90082978,46.2585884 C11.5410863,52.9059537 18.2385064,57.1330886 26.808973,58.8227703 C35.3739873,60.5116147 43.1798852,59.1442955 50.0077391,54.7589099 C56.8242693,50.3806415 61.0732243,44.1556966 62.6367525,36.2565601 C64.1986032,28.3616101 62.6744987,21.1134784 58.1067986,14.7122807 C53.5281941,8.29559297 46.7531847,4.16349221 37.968404,2.43194523 C35.4121528,1.92788755 32.9360073,1.67627736 30.5454196,1.67627736 M33.7576145,61.2007169 C31.3959655,61.2007169 28.9701481,60.9558051 26.4835175,60.465563 C17.4735184,58.6892202 10.4217041,54.2309891 5.52519336,47.2164654 C0.616519982,40.1985926 -1.03298552,32.3965835 0.622811002,24.0285561 C2.27818812,15.663878 6.70119474,9.17057682 13.7710433,4.72867317 C20.8236963,0.296817177 29.0754179,-1.02821817 38.2938595,0.789152586 C47.5123011,2.60652335 54.63793,6.96427783 59.4732082,13.7405882 C64.3193907,20.53197 65.9374411,28.2167563 64.282064,36.5810158 C62.6275257,44.9440193 58.1298656,51.5336106 50.9153237,56.1668385 C45.6992291,59.5173149 39.9509142,61.2007169 33.7576145,61.2007169" id="Fill-28" fill="#000000" mask="url(#mask-2)"></path>
                    </g>
                    <path d="M134.591848,106.952553 C134.681181,101.953422 143.281005,102.06604 152.095983,100.333656 C161.433115,98.4987015 149.762014,113.290952 142.672454,118.473034 C135.582893,123.655115 122.970656,152.443758 122.970656,152.443758 C122.970656,147.023045 134.444219,115.205032 134.591848,106.952553" id="Fill-31" fill="#FDAC72"></path>
                    <path d="M197.641375,108.89577 C197.641375,108.89577 189.40643,112.039851 187.017939,122.576917 C184.525018,133.575339 182.89774,142.009932 182.03629,155.744666 C181.207553,168.965295 184.756527,184.933541 189.089782,196.239254 C183.921919,205.473473 120.906027,205.630049 120.91819,203.687083 C120.91819,203.687083 125.447305,179.566416 118.735206,157.560362 C116.884388,151.491575 115.284791,139.418472 122.180168,133.464396 C129.075546,127.5099 150.367714,101.052733 150.367714,101.052733 C150.367714,101.052733 188.134805,98.9594705 197.641375,108.89577" id="Fill-33" fill="#FDAC72"></path>
                    <path d="M182.755144,131.287612 C182.352938,137.934977 182.522796,139.600377 183.803647,147.023087" id="Fill-35" fill="#547896"></path>
                    <path d="M185.25595,65.7360826 C184.88478,68.0311359 183.323349,69.6881627 181.769467,69.4378085 C180.215585,69.186617 179.256833,67.1234972 179.628423,64.8280252 C179.999593,62.5329719 179.736629,54.4056697 184.345849,56.3833844 C187.268657,57.6372488 185.627959,63.4406106 185.25595,65.7360826" id="Fill-37" fill="#BC9084"></path>
                    <path d="M178.518519,74.0445357 C179.558215,76.4048988 182.317876,77.4766494 184.682461,76.438391 C187.047046,75.4005513 188.120713,72.6458175 187.080598,70.2854544 C186.040902,67.9255099 183.281241,66.8537593 180.916656,67.891599 C178.552491,68.9294387 177.478823,71.6841726 178.518519,74.0445357" id="Fill-39" fill="#F16704"></path>
                    <path d="M182.793435,67.7433123 C182.198305,67.7433123 181.594786,67.8634656 181.016432,68.1175877 C179.933118,68.5927583 179.100187,69.4614624 178.671559,70.5616813 C178.242092,71.6623189 178.268514,72.8638517 178.744954,73.9448126 C179.220975,75.0261922 180.090813,75.8576362 181.193419,76.2859178 C182.296025,76.714618 183.499707,76.6874056 184.583021,76.2126536 C185.666335,75.7374829 186.498846,74.8691975 186.927894,73.7685599 C187.356941,72.6679223 187.330939,71.4659708 186.854918,70.3850099 C186.125579,68.7300764 184.497463,67.7433123 182.793435,67.7433123 M182.801404,77.0830322 C182.197466,77.0830322 181.593528,76.9708333 181.014335,76.7455983 C179.788425,76.2695903 178.821705,75.3452054 178.292839,74.1436726 C177.763136,72.9421398 177.734197,71.6066381 178.210637,70.3829167 C178.687916,69.1596139 179.613534,68.1946197 180.817216,67.6658616 C183.303427,66.5731784 186.213653,67.7052149 187.307033,70.18615 C187.836317,71.3881015 187.865675,72.7236031 187.388397,73.9473246 C186.911537,75.1706273 185.985499,76.1356215 184.781817,76.6643797 C184.147263,76.9432023 183.474543,77.0830322 182.801404,77.0830322" id="Fill-41" fill="#F16704"></path>
                    <path d="M233.864525,125.964235 L232.678458,125.545583 C239.705947,105.723221 236.673255,90.3758371 224.358374,83.4383455 C217.744834,79.7119191 211.11284,80.6409091 205.261772,81.4610495 C201.757674,81.9517103 198.447758,82.4155773 195.719972,81.7155902 L196.033684,80.4985673 C198.520734,81.1374311 201.563072,80.7108241 205.086882,80.2172327 C211.135069,79.3702986 217.991442,78.409491 224.976991,82.3444064 C237.876518,89.6117962 241.115974,105.510964 233.864525,125.964235" id="Fill-43" fill="#2B2A26"></path>
                    <path d="M151.126914,445.670523 C151.126914,445.670523 153.34345,449.05491 153.586703,451.535845 C154.165896,457.434241 153.768723,484.480871 153.996458,484.576742 L149.482861,484.576742 L149.586453,470.427123 C149.586453,470.427123 139.75233,484.576742 135.2056,484.576742 L114.014508,484.576742 C114.014508,484.576742 113.212193,480.30523 118.026501,479.237248 C120.490065,478.690487 124.851839,477.036391 128.523278,472.023027 C132.02528,467.241177 136.806874,461.695705 136.806874,448.846421 L151.126914,445.670523 Z" id="Fill-45" fill="#F16704"></path>
                    <g id="Group-49" transform="translate(170.807885, 443.237440)">
                        <mask id="mask-4" fill="white">
                            <use xlink:href="#path-3"></use>
                        </mask>
                        <g id="Clip-48"></g>
                        <path d="M33.9763148,0 C33.9763148,0 36.458332,3.19557498 36.9012198,5.64846033 C37.9539172,11.4815464 39.7397281,38.4720769 39.9745929,38.5495276 L35.4752552,38.9120808 L34.4376563,24.7997216 C34.4376563,24.7997216 25.776599,39.6941237 21.2445481,40.0596074 C16.7124971,40.4250911 0.122237979,41.762686 0.122237979,41.762686 C0.122237979,41.762686 -1.0218889,37.5690433 3.69050465,36.1179936 C6.1024818,35.3753039 10.3162071,33.3754007 13.571181,28.0836323 C16.6764286,23.0355198 18.7289788,14.8847731 21.7834788,0.982996209 L33.9763148,0 Z" id="Fill-47" fill="#F16704" mask="url(#mask-4)"></path>
                    </g>
                    <path d="M128.523111,472.023152 C132.025531,467.240884 136.877166,459.049109 136.877166,446.199825 L151.36203,443.612552 C151.36203,443.612552 145.692144,470.075999 133.70062,471.589847 C129.856387,472.075065 128.523111,472.023152 128.523111,472.023152" id="Fill-50" fill="#BC9084"></path>
                    <path d="M143.740753,205.961999 C129.495786,205.961999 118.813634,204.230452 118.598062,204.194448 C118.140914,204.118253 117.832654,203.686204 117.908985,203.23071 C117.986155,202.774797 118.421074,202.466669 118.874866,202.542863 C119.310205,202.616128 162.739634,209.644885 191.158269,195.01884 C191.571799,194.807001 192.076339,194.968601 192.288137,195.3793 C192.500773,195.790416 192.338884,196.295311 191.927451,196.50715 C177.190527,204.091459 158.542265,205.961999 143.740753,205.961999" id="Fill-52" fill="#000000"></path>
                    <path d="M205.647747,442.690135 L193.056899,439.508794 C192.119957,448.691938 188.261884,462.4183 184.691101,470.910248 C184.691101,470.910248 183.571299,474.689425 192.690343,471.254799 C202.740876,467.468924 205.647747,442.690135 205.647747,442.690135" id="Fill-54" fill="#BC9084"></path>
                    <path d="M174.823887,80.8591946 C174.823887,80.8591946 173.276715,88.2438071 173.766996,92.8711738 C174.110485,96.1065208 173.707441,101.33884 174.178428,102.615731 C174.553373,103.632219 165.821018,109.189832 162.108477,109.797715 C151.042153,111.6109 149.989036,102.820871 149.989036,102.820871 C149.989036,102.820871 153.365217,98.2198789 153.346763,92.3549752 C153.327471,86.2409732 149.476108,82.2692164 156.885672,83.1035909 C164.296494,83.9392215 175.253773,76.7388161 174.823887,80.8591946" id="Fill-56" fill="#BC9084"></path>
                    <path d="M152.790595,87.9267615 C153.439829,90.9197086 153.408793,89.9865321 153.346721,92.3552683 C155.355654,93.5182851 157.461049,94.8935587 159.805083,94.7152127 C163.949607,94.39913 170.290955,88.9679504 174.186774,84.5880073 C174.380118,83.2240373 174.572204,82.2117354 174.836008,80.7058421 C166.476081,85.9666302 162.089562,87.4984799 152.790595,87.9267615" id="Fill-58" fill="#A8847D"></path>
                    <path d="M145.388623,47.4033708 C145.388623,47.4033708 138.623679,55.9568612 143.843548,76.1095394 C145.111818,81.0052625 151.780719,90.4969533 159.862163,89.8823713 C167.944447,89.2661147 179.065293,79.258644 180.859492,69.1213909 C182.570649,59.4626577 175.25629,58.1062234 166.259712,52.6972324 C159.061107,48.3687836 152.414015,42.8601532 152.414015,42.8601532 C152.414015,42.8601532 147.908806,49.474445 145.388623,47.4033708" id="Fill-60" fill="#BC9084"></path>
                    <path d="M191.544328,84.9845132 C190.904741,84.9845132 190.272703,84.6935496 189.860851,84.1417656 C189.169259,83.2148688 189.360925,81.903649 190.289899,81.2124536 L196.755809,76.4033917 C197.683525,75.7130336 198.997929,75.9039392 199.690361,76.8312546 C200.381954,77.7581513 200.190287,79.0697898 199.261313,79.7605665 L192.795403,84.5700471 C192.419619,84.849707 191.980086,84.9845132 191.544328,84.9845132" id="Fill-62" fill="#F3F5F7"></path>
                    <path d="M201.653662,115.356333 C197.023471,100.776339 181.528269,107.056965 179.201431,119.835078 C175.957361,135.40979 181.109287,167.53342 181.109287,167.53342 L168.720591,169.681108 C168.432462,169.729671 168.140978,169.780328 167.84572,169.83266 L167.844461,169.833079 L167.844461,169.833079 C153.125991,172.455518 129.348031,180.088392 120.366132,182.833915 C116.934171,182.171188 107.516094,180.895972 103.789294,180.745257 C99.6766439,180.096346 95.9867509,179.822966 95.2834148,180.340002 C93.7031105,181.501763 76.6779322,185.757785 76.6779322,185.757785 C76.6779322,185.757785 76.2895666,188.513356 81.4817553,187.565526 C87.5102302,186.465307 93.7127568,185.757785 93.7127568,185.757785 C93.7127568,185.757785 92.4113544,188.007205 94.9965443,189.315494 C93.7215642,190.861997 94.6777993,192.992519 96.0236582,193.381448 C95.4218173,195.113832 96.0047851,196.710991 97.9008986,197.411816 C97.6324818,199.324221 98.9988914,200.805832 101.540044,200.458769 C102.927004,200.26912 108.879148,197.103269 113.064774,193.855781 C116.624652,192.690671 121.693957,191.268927 124.566436,190.831854 C125.686238,190.661462 129.893253,190.398548 135.553074,190.047717 C151.413155,191.483696 171.391339,192.791148 184.170498,191.798522 C195.411712,190.930237 210.737476,143.985888 201.653662,115.356333" id="Fill-64" fill="#BC9084"></path>
                    <path d="M125.610452,195.646316 C123.90936,195.646316 122.151649,194.547772 121.339269,194.040365 C120.536954,193.538819 120.191787,192.58471 120.42791,191.717681 C120.480754,191.523844 124.163937,190.851907 124.400479,190.97834 C123.640524,188.608348 121.084692,184.134208 119.447769,182.661807 C118.551508,182.583938 117.140222,182.147283 116.163856,182.147283 C116.011194,181.759192 115.974706,181.320863 116.086267,180.882952 C116.649104,178.674979 118.339291,178.394481 118.843831,178.360989 C119.874719,178.291493 121.554002,178.607994 124.238171,182.119233 C125.719496,184.057176 127.103521,186.458567 127.940227,188.542201 C128.397793,189.68261 129.791464,193.152403 127.661744,194.930002 C127.038514,195.449968 126.329725,195.646316 125.610452,195.646316" id="Fill-66" fill="#F16704"></path>
                    <path d="M148.232541,131.299167 C148.092461,131.299167 147.949865,131.264 147.819431,131.189898 C147.416386,130.961733 147.275468,130.450977 147.504041,130.048651 C151.357501,123.270666 156.5564,109.876715 156.608406,109.742328 C156.774908,109.310278 157.261414,109.097603 157.692978,109.262971 C158.124961,109.429594 158.340114,109.914394 158.172773,110.345606 C158.120348,110.481249 152.876992,123.991168 148.962719,130.875072 C148.808379,131.146777 148.524445,131.299167 148.232541,131.299167" id="Fill-68" fill="#000000"></path>
                    <path d="M116.16373,182.14745 C116.011068,181.758941 115.97458,181.32103 116.086141,180.88312" id="Fill-70" fill="#F16704"></path>
                    <path d="M21.0421206,222.695039 L60.0414131,229.485584 L105.205486,11.2214908 L51.1614284,1.81143723 L21.0421206,222.695039 Z M60.6994538,231.287046 C60.6512227,231.287046 60.6029915,231.283278 60.554341,231.274905 L19.9579681,224.206375 C19.5134026,224.128924 19.2101755,223.714877 19.2709887,223.268593 L49.6167732,0.724196532 C49.6473895,0.498542803 49.7685965,0.295496312 49.9527137,0.16110884 C50.1359921,0.0267213688 50.3670822,-0.0260288537 50.5918813,0.0120685292 L106.346258,9.71978407 C106.569799,9.75913741 106.767756,9.88682644 106.895674,10.0739641 C107.023172,10.2615205 107.069306,10.4926167 107.023591,10.7140839 L61.5202223,230.619295 C61.4380196,231.014084 61.0899165,231.287046 60.6994538,231.287046 L60.6994538,231.287046 Z" id="Fill-72" fill="#000000"></path>
                    <path d="M91.5749003,149.824417 C91.1915675,149.855816 84.2773169,147.891498 81.2983091,145.279106 C78.3184625,142.665877 74.8693058,139.916585 74.6784782,139.785128 C74.4876506,139.653671 70.434556,137.239302 69.7232513,136.09345 C69.012366,134.949273 69.5915593,133.568975 70.5385675,133.283035 C71.4855758,132.999608 73.5733557,133.779976 75.0353888,134.786417 C76.4978413,135.792858 81.4895561,139.977709 81.7898475,138.592387 C82.0888806,137.207485 84.2265693,138.865767 86.9547751,139.806061 C89.682142,140.747192 93.5393762,142.091485 94.2733286,143.064434 C95.0089586,144.03822 94.9657602,149.534709 91.5749003,149.824417" id="Fill-74" fill="#BC9084"></path>
                </g>
            </g>
        </g>
    </g>
</svg>