<?xml version="1.0" encoding="UTF-8"?>
<svg width="56px" height="34px" viewBox="0 0 56 34" version="1.1" xmlns="http://www.w3.org/2000/svg" xmlns:xlink="http://www.w3.org/1999/xlink">
    <g id="Locations" stroke="none" stroke-width="1" fill="none" fill-rule="evenodd">
        <g id="QR-Code-pdf" transform="translate(-91.000000, -147.000000)">
            <g id="luca_logo_padding" transform="translate(91.000000, 147.000000)">
                <rect id="Rectangle" fill="#FFFFFF" x="0" y="0" width="56" height="34"></rect>
                <g id="luca_logo_black" transform="translate(8.000000, 6.000000)" fill="#000000" fill-rule="nonzero">
                    <path d="M0.557317476,18.7902962 C1.51007598,18.7902962 1.5563264,18.5138685 1.5563264,16.2643188 L1.5563264,3.37706791 C1.5563264,1.40394592 1.25107367,1.37534995 0.131813677,1.58505373 C-0.0439378923,1.60411772 -0.0439378923,1.40394592 0.131813677,1.37534995 C1.24182359,1.16564616 2.06508094,0.77483456 2.82358771,0.345894997 C2.88833829,0.298235045 3.22134126,0.393554948 3.22134126,0.507938832 L3.22134126,16.2643188 C3.22134126,18.6473164 3.31384209,18.7902962 4.53485299,18.7902962 C4.71060456,18.7902962 4.71060456,19 4.53485299,19 C3.88734721,19 3.01783944,18.95234 2.68483647,18.95234 C2.3518335,18.95234 1.19557317,19 0.548067393,19 C0.381565907,19 0.381565907,18.7902962 0.557317476,18.7902962 Z" id="Path"></path>
                    <path d="M6.19650186,14.5410424 L6.19650186,10.5038206 C6.19650186,8.61735351 5.8873524,8.66292035 4.79623666,8.86341444 C4.62347667,8.88164117 4.62347667,8.69026045 4.79623666,8.66292035 C5.8873524,8.46242626 6.72387447,8.08877819 7.46947023,7.67867665 C7.53311865,7.63310981 7.86045337,7.72424349 7.86045337,7.8336039 L7.86045337,14.7597633 C7.86045337,17.4755468 9.10614384,18.3322034 10.4427606,18.3322034 C11.8248406,18.3322034 12.7431963,17.7216077 13.7706636,16.3181491 L13.7706636,10.5038206 C13.7706636,8.61735351 13.4615142,8.66292035 12.3703984,8.86341444 C12.1976384,8.88164117 12.1976384,8.69026045 12.3703984,8.66292035 C13.4615142,8.46242626 14.2707584,8.08877819 15.0163541,7.67867665 C15.0800025,7.63310981 15.4073372,7.72424349 15.4073372,7.8336039 L15.4073372,16.1632219 C15.4073372,18.3777702 15.4982636,18.5782643 16.571194,18.5782643 C16.6984909,18.5782643 16.6984909,18.7787584 16.571194,18.7787584 C15.216392,18.7787584 14.3434994,18.9336856 13.7252005,18.9974792 C13.5524405,19.0157059 13.5524405,18.9336856 13.5524405,18.7969851 C13.5524405,18.669398 13.7706636,17.7398345 13.7706636,16.6006635 C12.65227,18.0952558 11.4065795,18.9883658 9.72444276,18.9883658 C7.75134179,18.9974792 6.19650186,17.9858954 6.19650186,14.5410424 Z" id="Path"></path>
                    <path d="M18,14.1267306 C18,10.800852 21.1285767,7.66666667 24.4257592,7.66666667 C26.6363703,7.66666667 28.1912916,8.58679446 28.1912916,9.39190628 C28.1912916,9.78487753 27.8072448,10.3407881 27.0859861,10.3407881 C26.1399195,10.3407881 25.6622027,8.17465389 23.4796926,8.17465389 C21.2503476,8.17465389 19.4706184,9.94781683 19.4706184,13.0915868 C19.4706184,16.1395101 21.5875595,18.372737 24.4538602,18.372737 C25.9151116,18.372737 27.4981339,17.7976571 28.4629345,15.8615548 C28.5097695,15.7657082 28.5566045,15.7273695 28.6221734,15.7465389 C28.6877424,15.7657082 28.6690084,15.8615548 28.6409074,15.9094782 C27.404464,18.3343983 25.4373948,19.6666667 23.4141237,19.6666667 C20.229345,19.6666667 18,17.3759318 18,14.1267306 Z" id="Path"></path>
                    <path d="M29.3333333,17.0733652 C29.3333333,15.5326954 30.810542,14.0111643 35.0338436,12.3556619 L36.9466394,11.599681 C36.8330079,8.71929825 36.1038729,7.8676236 34.484625,7.8676236 C33.821775,7.8676236 33.3483107,8.04944179 32.9600699,8.35566188 C32.1835885,8.9585327 31.8900406,9.92503987 31.5491463,10.4322169 C31.340822,10.7288676 31.141967,10.8437002 30.5264634,10.8437002 C29.9772448,10.8437002 29.6174119,10.6331738 29.6174119,10.3173844 C29.6174119,10.0398724 29.8446748,9.59968102 30.412832,9.23604466 C31.3218834,8.63317384 33.2346792,7.66666667 34.8539271,7.66666667 C37.0886787,7.66666667 38.6795187,8.84370016 38.6795187,11.8580542 C38.6795187,13.3987241 38.4996023,16.0015949 38.4996023,16.9011164 C38.4996023,18.2121212 38.6605802,18.8628389 39.1340445,18.8628389 C39.5412238,18.8628389 40.1093809,18.0590112 40.3650517,17.599681 C40.4786831,17.4178628 40.7532924,17.599681 40.639661,17.7814992 C40.2798281,18.307815 38.8594352,19.6475279 37.9693223,19.6475279 C37.1076172,19.6475279 36.6720301,19.0446571 36.6720301,18.0111643 C36.6720301,17.4561404 36.7193765,16.7480064 36.7667229,16.2599681 C36.2837893,17.2743222 34.1910771,19.6666667 32.2972199,19.6666667 C30.4507091,19.6570973 29.3333333,18.4800638 29.3333333,17.0733652 Z M33.4051264,18.6427432 C34.9770279,18.6427432 36.5678679,16.5279107 36.7761922,15.7623604 C36.7951308,15.4657097 36.9371701,14.1547049 36.9371701,12.2599681 C36.9371701,12.0972887 36.9371701,11.9346093 36.9371701,11.7719298 L35.0717207,12.5757576 C31.7195934,14.0015949 30.9241734,14.6905901 30.9241734,16.3939394 C30.9241734,17.6570973 32.0226106,18.6427432 33.4051264,18.6427432 Z" id="Shape"></path>
                </g>
            </g>
        </g>
    </g>
</svg>