<?xml version="1.0" encoding="UTF-8"?>
<svg width="306px" height="188px" viewBox="0 0 306 188" version="1.1" xmlns="http://www.w3.org/2000/svg" xmlns:xlink="http://www.w3.org/1999/xlink">
    <title>mobileUse@1,5x</title>
    <defs>
        <polygon id="path-1" points="0 -2.27200616e-14 43.1436031 -2.27200616e-14 43.1436031 43.1668797 0 43.1668797"></polygon>
        <polygon id="path-3" points="0 1.13600308e-14 23.8891651 1.13600308e-14 23.8891651 31.3518792 0 31.3518792"></polygon>
    </defs>
    <g id="Location" stroke="none" stroke-width="1" fill="none" fill-rule="evenodd">
        <g id="MobileNutzung" transform="translate(-32.000000, -373.000000)">
            <g id="mobileUse" transform="translate(32.000000, 373.000000)">
                <g id="person" transform="translate(0.000000, -0.000000)">
                    <path d="M305.201044,147.887114 L0.798955614,147.887114 C0.357932115,147.887114 0,147.528987 0,147.087723 C0,146.64566 0.357932115,146.288332 0.798955614,146.288332 L305.201044,146.288332 C305.642867,146.288332 306,146.64566 306,147.087723 C306,147.528987 305.642867,147.887114 305.201044,147.887114" id="Fill-1" fill="#45435D"></path>
                    <g id="head" transform="translate(137.467584, -0.000000)">
                        <mask id="mask-2" fill="white">
                            <use xlink:href="#path-1"></use>
                        </mask>
                        <g id="Clip-4"></g>
                        <path d="M21.5718016,-0.000239817331 C33.4858277,-0.000239817331 43.1436031,9.66279982 43.1436031,21.5833199 C43.1436031,33.5030407 33.4858277,43.1668797 21.5718016,43.1668797 C9.65777546,43.1668797 0,33.5030407 0,21.5833199 C0,9.66279982 9.65777546,-0.000239817331 21.5718016,-0.000239817331" id="Fill-3" fill="#45435D" mask="url(#mask-2)"></path>
                    </g>
                    <polygon id="Fill-6" fill="#BC9084" points="138.542738 160.138742 137.971485 150.355794 175.415339 143.493021 176.259036 157.932423"></polygon>
                    <path d="M140.356767,143.203162 L141.459326,162.071989 L129.586046,162.76666 L127.789195,132.018082 C134.347023,131.633574 139.974067,136.642559 140.356767,143.203162" id="Fill-8" fill="#45435D"></path>
                    <polygon id="Fill-10" fill="#BC9084" points="154.828889 160.04897 148.60902 167.620003 116.462242 147.220342 125.641443 136.046453"></polygon>
                    <g id="feet" transform="translate(139.298558, 156.648121)">
                        <mask id="mask-4" fill="white">
                            <use xlink:href="#path-3"></use>
                        </mask>
                        <g id="Clip-13"></g>
                        <path d="M2.70565593,14.6016779 L14.7003766,1.13600308e-14 L23.8891651,7.55664409 L4.34191703,31.352119 C-0.733049031,27.1784981 -1.46489237,19.6794102 2.70565593,14.6016779" id="Fill-12" fill="#45435D" mask="url(#mask-4)"></path>
                    </g>
                    <path d="M136.930366,124.840589 L132.679922,144.888518 C132.314001,146.616002 133.416559,148.31311 135.143102,148.679231 C135.344439,148.722398 135.548972,148.74558 135.754303,148.748778 L177.538084,149.423464 C179.302977,149.451443 180.757076,148.042915 180.786238,146.27706 C180.789034,146.074015 180.773055,145.87097 180.737102,145.671122 L177.08188,124.948506 C176.812632,123.42087 175.485567,122.306519 173.934794,122.306519 L140.056679,122.306519 C138.546653,122.306519 137.243557,123.362515 136.930366,124.840589" id="Fill-15" fill="#2F2E41"></path>
                    <path d="M143.859229,131.899292 C143.859229,131.899292 103.112492,106.318777 95.1229363,119.908425 C91.1281582,126.70325 93.1255473,133.298226 96.1216308,138.194497 C98.9019963,142.652701 102.893579,146.226779 107.62819,148.499448 L140.663406,164.674327 L152.64774,151.88407 L144.658184,144.68955 L143.859229,131.899292 Z" id="Fill-17" fill="#50667C"></path>
                    <path d="M164.632075,127.902337 C164.632075,127.902337 217.363145,112.713906 206.976722,141.491985 C196.590299,170.270065 157.441474,159.078589 157.441474,159.078589 L153.446696,147.087723 L167.028942,137.49503 L164.632075,127.902337 Z" id="Fill-19" fill="#50667C"></path>
                    <path d="M159.309752,6.87772123 C170.147585,6.87772123 178.932901,15.6686252 178.932901,26.5115661 C178.932901,37.354507 170.147585,46.1462103 159.309752,46.1462103 C148.472718,46.1462103 139.686603,37.354507 139.686603,26.5115661 C139.686603,15.6686252 148.472718,6.87772123 159.309752,6.87772123" id="Fill-21" fill="#BC9084"></path>
                    <path d="M160.338088,131.07496 C152.183947,130.951854 144.07215,129.882268 136.164088,127.888587 L135.929994,127.824636 L124.980307,77.4270237 C122.941372,68.2620047 128.062678,59.0162472 136.911111,55.8882298 C150.117848,51.1478406 164.511832,50.8592604 177.896735,55.0696533 L177.897534,55.0696533 C187.211759,58.0729657 192.651049,67.7384035 190.388406,77.2647473 L178.157994,127.782268 L177.985419,127.863806 C172.903263,130.273171 166.546772,131.07496 160.338088,131.07496" id="Fill-23" fill="#9BADBF"></path>
                    <path d="M145.629155,134.989898 C147.131192,130.81228 151.733975,128.645131 155.908518,130.147187 C156.354335,130.308664 156.784173,130.507712 157.194837,130.743532 L178.755453,112.018595 L180.705703,126.733787 L159.932058,142.259561 C157.457693,145.972732 152.44185,146.975968 148.729902,144.499454 C145.624361,142.427433 144.342837,138.496027 145.629155,134.989898" id="Fill-25" fill="#FFB8B8"></path>
                    <path d="M166.192515,139.074307 C165.841773,139.074307 165.49263,139.023146 165.157068,138.922422 C164.049716,138.599468 163.167669,137.760108 162.789763,136.670538 L160.187564,129.293757 C159.688217,127.89802 160.102076,126.338408 161.227805,125.374342 L190.604604,107.728583 L179.024541,56.0391549 L179.318557,55.968009 C179.439199,55.9384316 191.30369,53.2364897 196.165335,66.2090085 C199.570484,75.2940883 212.169215,95.0486412 211.280776,108.397673 C210.93323,113.894286 206.860155,118.434029 201.436045,119.371714 L168.36887,138.326876 C167.745685,138.810508 166.980285,139.072708 166.192515,139.074307" id="Fill-27" fill="#9BADBF"></path>
                    <path d="M169.487408,133.236593 C167.985371,129.058976 163.382588,126.891826 159.207246,128.393882 C158.762228,128.55456 158.33239,128.754407 157.921726,128.990228 L136.36111,110.264491 L134.410061,124.980482 L155.184504,140.506256 C157.65887,144.219428 162.674713,145.222664 166.385862,142.74615 C169.491403,140.674128 170.773726,136.742723 169.487408,133.236593" id="Fill-29" fill="#FFB8B8"></path>
                    <path d="M151.0873,139.074307 C150.29953,139.072708 149.534131,138.810508 148.910945,138.326876 L113.446903,120.970497 C108.022794,120.032811 103.949718,115.493069 103.602172,109.996455 C102.713734,96.6474235 117.709332,75.2940883 121.11448,66.2090085 C125.976125,53.2364897 137.840616,55.9376322 137.961258,55.968009 L138.255274,56.0391549 L124.278345,109.327365 L156.05201,125.374342 C157.177739,126.338408 157.590799,127.89802 157.092251,129.293757 L154.490052,136.670538 C154.112146,137.760108 153.230099,138.599468 152.122747,138.922422 C151.786386,139.023146 151.438042,139.074307 151.0873,139.074307" id="Fill-31" fill="#9BADBF"></path>
                    <path d="M193.394477,147.087723 L122.287427,147.087723 C119.200263,147.083726 116.697934,144.580832 116.694738,141.491985 L116.694738,102.321821 C116.697934,99.232974 119.200263,96.7292811 122.287427,96.7260835 L193.394477,96.7260835 C196.481641,96.7292811 198.98397,99.232974 198.987166,102.321821 L198.987166,141.491985 C198.98397,144.580832 196.481641,147.083726 193.394477,147.087723" id="Fill-33" fill="#F5F5F4"></path>
                    <path d="M157.840952,117.110557 C160.487892,117.110557 162.634686,119.258521 162.634686,121.906903 C162.634686,124.555286 160.487892,126.70325 157.840952,126.70325 C155.193213,126.70325 153.047218,124.555286 153.047218,121.906903 C153.047218,119.258521 155.193213,117.110557 157.840952,117.110557" id="Fill-35" fill="#E9E9E9"></path>
                    <path d="M139.4903,25.7129744 C138.32702,22.760823 140.235725,19.2435022 143.066425,17.8141909 C145.897125,16.3840802 149.31266,16.6558732 152.339903,17.5983553 C154.885375,18.3897525 157.269459,19.6176172 159.751814,20.5864792 C162.199814,21.6720524 164.87312,22.1484894 167.544028,21.9750216 C170.192566,21.6760493 172.828321,20.1899812 173.911704,17.7542366 C175.034237,15.2297595 174.270436,12.1481068 172.540697,9.99294835 C170.700702,7.90973514 168.319015,6.37810179 165.66089,5.56911799 C159.822122,3.5106859 153.078138,3.45073157 147.658023,6.44205307 C142.237908,9.43337458 138.554723,15.8037223 139.674858,21.8942831" id="Fill-37" fill="#45435D"></path>
                    <path d="M26.0959676,138.548947 C27.0826778,127.912249 29.8087144,117.511371 34.1662183,107.758001 C35.3798319,105.044867 36.7164846,102.390889 38.1753775,99.7960651 C38.3303749,99.5066855 38.2225159,99.1461602 37.934093,98.9910783 C37.6592522,98.8423915 37.3165003,98.9319233 37.1495185,99.1957224 C31.8452522,108.646124 28.1285107,118.903911 26.1494977,129.558995 C25.5990172,132.535128 25.1851582,135.531246 24.9079206,138.548947 C24.8376125,139.309967 26.0264585,139.305171 26.0959676,138.548947" id="Fill-39" fill="#FDAC72"></path>
                    <path d="M41.0513781,86.6501584 C45.2059473,86.6501584 48.5735452,90.0195919 48.5735452,94.1756262 C48.5735452,98.33246 45.2059473,101.701893 41.0513781,101.701893 C36.8976078,101.701893 33.529211,98.33246 33.529211,94.1756262 C33.529211,90.0195919 36.8976078,86.6501584 41.0513781,86.6501584" id="Fill-41" fill="#FDAC72"></path>
                    <path d="M31.865282,138.748795 C32.5052454,131.848451 34.2741332,125.10079 37.1008381,118.77361 C37.8886084,117.013351 38.7554752,115.290663 39.7014386,113.607945 C39.802906,113.420088 39.7333969,113.185866 39.5456423,113.085143 C39.3674752,112.988416 39.1445666,113.047571 39.0367076,113.218641 C35.5948068,119.349171 33.1843577,126.004102 31.8996371,132.916437 C31.5433029,134.846967 31.2748538,136.791086 31.0950888,138.748795 C31.0495483,139.242818 31.8197415,139.239621 31.865282,138.748795" id="Fill-43" fill="#FDAC72"></path>
                    <path d="M41.567799,105.07988 C44.2626762,105.07988 46.4470209,107.265416 46.4470209,109.961762 C46.4470209,112.658108 44.2626762,114.844443 41.567799,114.844443 C38.8721227,114.844443 36.6877781,112.658108 36.6877781,109.961762 C36.6877781,107.265416 38.8721227,105.07988 41.567799,105.07988" id="Fill-45" fill="#FDAC72"></path>
                    <path d="M25.8927133,138.288186 C22.1559979,132.452631 19.4019979,126.043912 17.7417681,119.316237 C17.2807708,117.443263 16.9052616,115.551904 16.6168386,113.642159 C16.5816846,113.431919 16.3827446,113.290426 16.1726193,113.3256 C15.9720815,113.359973 15.8330632,113.543034 15.8530371,113.74528 C16.9084574,120.695986 19.0983948,127.426859 22.334964,133.668504 C23.2401807,135.409578 24.223695,137.107485 25.285507,138.762225 C25.5531572,139.179507 26.1587655,138.70307 25.8927133,138.288186" id="Fill-47" fill="#FDAC72"></path>
                    <path d="M15.8468851,104.737181 C18.5425614,104.737181 20.726906,106.922717 20.726906,109.619063 C20.726906,112.315409 18.5425614,114.501744 15.8468851,114.501744 C13.1520078,114.501744 10.9676632,112.315409 10.9676632,109.619063 C10.9676632,106.922717 13.1520078,104.737181 15.8468851,104.737181" id="Fill-49" fill="#FDAC72"></path>
                    <path d="M10.912695,143.607536 L10.912695,134.014842 C10.914293,132.029155 12.5233896,130.419981 14.5079953,130.417582 L36.8787525,130.417582 C38.8633582,130.419981 40.4716559,132.029155 40.4740527,134.014842 L40.4740527,143.607536 C40.4716559,145.593223 38.8633582,147.202397 36.8787525,147.204795 L14.5079953,147.204795 C12.5233896,147.202397 10.914293,145.593223 10.912695,143.607536" id="Fill-51" fill="#45435D"></path>
                    <path d="M251.198596,153.802928 C251.198596,159.060523 246.938564,161.449903 241.683833,161.449903 C236.429102,161.449903 232.16987,159.060523 232.16987,153.802928 C232.16987,148.545333 234.283907,142.410805 241.683833,144.526794 C249.084559,141.353211 251.198596,148.545333 251.198596,153.802928" id="Fill-53" fill="#FDAC72"></path>
                    <path d="M241.220599,146.989399 C240.455199,146.990197 239.808045,146.42263 239.709774,145.663208 C239.394985,143.040406 237.658056,137.902719 236.926213,135.815509 L236.926213,135.81471 C236.776009,135.39423 236.841523,134.925787 237.101983,134.562863 C237.582155,133.93694 238.477784,133.81863 239.103367,134.299064 C239.148108,134.333438 239.189654,134.37021 239.230401,134.40938 C239.49086,134.681972 239.625884,135.051291 239.604312,135.429403 C239.4605,138.108163 241.412348,142.436066 242.588411,144.777483 C242.967116,145.530509 242.664312,146.446611 241.911696,146.825523 C241.746312,146.908659 241.566547,146.962219 241.381988,146.980605 C241.328458,146.9862 241.274129,146.989399 241.220599,146.989399" id="Fill-55" fill="#45435D"></path>
                    <path d="M248.260996,141.080619 C251.563878,138.375479 248.972865,132.840495 244.839069,133.902886 C244.282996,134.035585 243.770066,134.309776 243.349816,134.69828 C240.813931,137.094855 240.420844,143.226984 240.420844,143.226984 C240.420844,143.226984 244.898991,143.833722 248.260996,141.080619" id="Fill-57" fill="#45435D"></path>
                </g>
            </g>
        </g>
    </g>
</svg>