<?xml version="1.0" encoding="UTF-8"?>
<svg width="219px" height="142px" viewBox="0 0 219 142" version="1.1" xmlns="http://www.w3.org/2000/svg" xmlns:xlink="http://www.w3.org/1999/xlink">
    <g id="Location" stroke="none" stroke-width="1" fill="none" fill-rule="evenodd">
        <g id="Neuigkeiten" transform="translate(-393.000000, -330.000000)">
            <g id="News" transform="translate(393.000000, 330.000000)">
                <path d="M199.36431,141 L193,122.518184 C193,122.518184 200.000316,129.254547 200.000316,134.781818 L198.743851,122 C198.743851,122 202.333756,126.663637 201.974765,133.745455 C201.615773,140.827274 199.36431,141 199.36431,141 Z" id="Path" fill="#819E57"></path>
                <path d="M65.3643108,124 L59,105.518183 C59,105.518183 66.0003161,112.254546 66.0003161,117.78182 L64.7438513,105 C64.7438513,105 68.3337577,109.663637 67.9747645,116.745454 C67.6157712,123.827271 65.3643108,124 65.3643108,124 Z" id="Path" fill="#819E57"></path>
                <path d="M160,132.895666 C160.010499,145.168373 135.875221,141.393307 106.327989,141.419026 C76.780757,141.444745 53.0105063,145.261502 53,132.988814 C52.9895006,120.716126 77.1159488,118.025907 106.663181,118 C136.210413,117.974463 159.989494,120.622958 160,132.895666 Z" id="Path" fill="#56534D"></path>
                <rect id="Rectangle" fill="#C5C3BE" x="0" y="141" width="219" height="1"></rect>
                <polygon id="Path" fill="#A0616A" fill-rule="nonzero" points="140 117 135.934671 117 134 102 140 102"></polygon>
                <path d="M132.212231,115 L140,115 L140,120 L128,120 L128,119.5426 C128,117.033788 129.885885,115 132.212231,115 L132.212231,115 Z" id="Path" fill="#FFFFFF" fill-rule="nonzero"></path>
                <polygon id="Path" fill="#A0616A" fill-rule="nonzero" points="168 139 163.934671 139 162 124 168 124"></polygon>
                <path d="M161.212231,137 L169,137 L169,142 L157,142 L157,141.5426 C157,139.033788 158.885885,137 161.212231,137 L161.212231,137 Z" id="Path" fill="#FFFFFF" fill-rule="nonzero"></path>
                <path d="M185.350789,94.9335507 C185.885764,94.2769628 186.105899,93.4142757 185.951958,92.5776258 C185.798018,91.740976 185.285815,91.0163083 184.553177,90.5986204 L175.675989,54 L170,56.4715598 L180.558765,91.859321 C179.933292,93.1804593 180.383019,94.7662651 181.605589,95.5505808 C182.828158,96.3348965 184.437137,96.0698136 185.350789,94.9335507 Z" id="Path" fill="#A48273" fill-rule="nonzero"></path>
                <path d="M179.085252,20.9486998 C178.424942,20.2916041 177.492794,19.9466712 176.53963,20.0067151 C175.586466,20.0667591 174.710196,20.5256121 174.146606,21.2598066 L160,22.8058223 L162.151995,28 L175.017493,25.7079185 C176.40644,26.5458308 178.234239,26.2624126 179.272032,25.0482104 C180.309825,23.8340081 180.229582,22.0728116 179.085252,20.9486998 L179.085252,20.9486998 Z" id="Path" fill="#A48273" fill-rule="nonzero"></path>
                <path d="M156,91.1205518 L161.982928,136 L169.429498,134.467704 C169.429498,134.467704 168.3344,101.783056 172.057702,97.8428309 C175.781003,93.9026055 167.268781,87 167.268781,87 L156,91.1205518 Z" id="Path" fill="#50667C"></path>
                <path d="M158.075008,78.5500174 L155.273948,82.6638678 C155.273948,82.6638678 133.70578,73.8878482 133.70578,87.8747451 C133.70578,101.861642 132.471545,111.353708 132.025143,112.009335 C131.578741,112.664962 137.189632,114.366228 139.868113,113.929132 C139.868113,113.929132 143.172488,91.3800639 142.94928,90.0687987 C142.94928,90.0687987 164.106687,100.225443 168.124408,99.3512663 C172.142129,98.4770895 173.091338,95.3824976 173.760949,93.6341358 C174.430559,91.885774 173.480843,78.001504 173.480843,78.001504 L160.088971,74 L158.075008,78.5500174 Z" id="Path" fill="#50667C"></path>
                <path d="M158.965187,53 L158.175867,52.055952 C158.175867,52.055952 149.335478,32.2309544 152.808485,26.8813517 C156.281493,21.531749 171.436452,20.7450436 171.910048,21.0597236 C172.383645,21.3744035 170.77885,25.4600314 171.88389,27.3481357 C171.88389,27.3481357 160.144007,29.8849645 159.354679,30.1996472 C158.565351,30.5143298 165.437616,42.1434463 165.437616,42.1434463 L164.648299,49.2237996 L158.965187,53 Z" id="Path" fill="#9BADBF"></path>
                <path d="M173.869072,43.1149117 C173.869072,43.1149117 165.738143,44.0705619 165.425404,44.0705619 C165.112664,44.0705619 164.956318,42 164.956318,42 L157.763556,52.0342587 C157.763556,52.0342587 154.219916,81.1448674 155.158102,80.6670437 C156.096288,80.18922 173.399983,82.9334094 173.556351,81.6592194 C173.71272,80.3850294 173.399983,74.0140681 173.869083,73.6955171 C174.338182,73.3769661 182,53.6270025 182,53.6270025 C182,53.6270025 181.21818,49.4858786 178.559988,48.0524103 C175.901795,46.618942 173.869072,43.1149117 173.869072,43.1149117 Z" id="Path" fill="#9BADBF"></path>
                <path d="M180.015378,51 L182.616611,53.6605566 C182.616611,53.6605566 186.481521,84.2328763 184.368021,85.1718977 C182.25452,86.1109191 178.093806,85.9955068 178.093806,85.9955068 L174,71.5019471 L180.015378,51 Z" id="Path" fill="#9BADBF"></path>
                <circle id="Oval" fill="#A48273" fill-rule="nonzero" cx="166.5" cy="34.5" r="7.5"></circle>
                <path d="M164.197572,35.3284055 C164.097827,33.8277175 162.164785,33.7762976 160.629381,33.7620885 C159.093976,33.7478795 157.258309,33.8015624 156.389523,32.561574 C155.815377,31.7421073 155.925045,30.6044682 156.399373,29.7258858 C156.873701,28.8473034 157.65391,28.1715728 158.421471,27.5215067 C160.40313,25.8432015 162.445478,24.178215 164.824626,23.1039887 C167.203775,22.0297624 169.991811,21.595707 172.45923,22.4580351 C175.490255,23.5173246 179.587651,28.9701848 179.941473,32.1030338 C180.295295,35.2358827 179.016955,38.4295811 176.862092,40.7706537 C174.707229,43.1117264 169.775152,42.167165 166.671312,43 C168.558273,40.3843109 167.314495,35.631531 164.291617,34.4100709 L164.197572,35.3284055 Z" id="Path" fill="#56534D"></path>
                <circle id="Oval" fill="#C3CED9" cx="99.5" cy="111.5" r="17.5"></circle>
                <path d="M88.5296597,93 C83.5908373,93 79.114444,90.0952509 77.1050804,85.5857948 L49.4259865,23.2820544 C46.927625,17.6584767 47.7545928,11.1140022 51.5733869,6.28791375 C55.3921809,1.46182531 61.5731448,-0.850134377 67.6235938,0.284411367 C73.6740428,1.41895711 78.5963572,5.81294033 80.4054458,11.6943373 L100.448456,76.8546658 C101.612102,80.6369129 100.911897,84.7466554 98.5613529,87.9307322 C96.2108084,91.114809 92.4885816,92.9957462 88.5296708,93 L88.5296597,93 Z" id="Path" fill="#C3CED9"></path>
            </g>
        </g>
    </g>
</svg>