<?xml version="1.0" encoding="UTF-8"?>
<svg width="413px" height="367px" viewBox="0 0 413 367" version="1.1" xmlns="http://www.w3.org/2000/svg" xmlns:xlink="http://www.w3.org/1999/xlink">
    <title>maintenance@1,5x</title>
    <defs>
        <polygon id="path-1" points="224.989982 0.633540839 177.746042 0 176.577651 20.426426 137.631294 20.1963422 138.28133 53.3211302 91.3543169 51.5541832 89.8900065 88.0555019 37.3650612 90.1880221 37.8945754 117.676565 1.4032964 120.022773 1.22528127e-17 228.973974 226.021112 228.696901"></polygon>
        <polygon id="path-3" points="0 4.14559625e-14 14.4593037 4.14559625e-14 14.4593037 28.9116797 0 28.9116797"></polygon>
    </defs>
    <g id="Location" stroke="none" stroke-width="1" fill="none" fill-rule="evenodd">
        <g id="MaintenancePage" transform="translate(-277.000000, -398.000000)">
            <g id="maintenance" transform="translate(277.000000, 398.000000)">
                <g id="paint" transform="translate(186.155439, 0.147733)">
                    <mask id="mask-2" fill="white">
                        <use xlink:href="#path-1"></use>
                    </mask>
                    <use id="Fill-1" fill="#F5F5F4" xlink:href="#path-1"></use>
                    <g id="luca_logo_black" mask="url(#mask-2)" fill="#000000" fill-rule="nonzero">
                        <g transform="translate(4.051582, 77.880965)">
                            <path d="M1.59828943,52.5932821 C4.33063483,52.5932821 4.46327298,51.8055989 4.46327298,45.3954867 L4.46327298,8.67314912 C4.46327298,3.05072022 3.58786133,2.96923574 0.378018662,3.56678855 C-0.126006221,3.62111157 -0.126006221,3.05072022 0.378018662,2.96923574 C3.56133371,2.3716829 5.92229237,1.25806173 8.09755764,0.0357945732 C8.28325102,-0.10001289 9.23824553,0.171602033 9.23824553,0.497539942 L9.23824553,45.3954867 C9.23824553,52.1858599 9.50352179,52.5932821 13.0051683,52.5932821 C13.5091932,52.5932821 13.5091932,53.190835 13.0051683,53.190835 C11.1482346,53.190835 8.65463776,53.0550274 7.69964326,53.0550274 C6.74464875,53.0550274 3.42869556,53.190835 1.5717618,53.190835 C1.09426455,53.190835 1.09426455,52.5932821 1.59828943,52.5932821 Z" id="Path"></path>
                            <path d="M17.7704878,40.4849951 L17.7704878,28.9808952 C17.7704878,23.6053902 16.883901,23.7352333 13.7547712,24.306543 C13.2593256,24.3584802 13.2593256,23.8131392 13.7547712,23.7352333 C16.883901,23.1639236 19.2829006,22.09921 21.4211393,20.930622 C21.6036719,20.8007789 22.5424109,21.0604651 22.5424109,21.3720886 L22.5424109,41.1082423 C22.5424109,48.8468918 26.1148341,51.2879425 29.9480181,51.2879425 C33.9115828,51.2879425 36.5452669,49.5480446 39.4918642,45.5488766 L39.4918642,28.9808952 C39.4918642,23.6053902 38.6052775,23.7352333 35.4761475,24.306543 C34.9807019,24.3584802 34.9807019,23.8131392 35.4761475,23.7352333 C38.6052775,23.1639236 40.9260489,22.09921 43.0642875,20.930622 C43.24682,20.8007789 44.1855589,21.0604651 44.1855589,21.3720886 L44.1855589,45.1074102 C44.1855589,51.4177855 44.44632,51.9890953 47.5232974,51.9890953 C47.8883628,51.9890953 47.8883628,52.560405 47.5232974,52.560405 C43.6379613,52.560405 41.1346574,53.0018715 39.3614839,53.1836519 C38.8660383,53.2355891 38.8660383,53.0018715 38.8660383,52.6123422 C38.8660383,52.2487816 39.4918642,49.599982 39.4918642,46.353904 C36.2845061,50.6127582 32.7120828,53.1576832 27.8880077,53.1576832 C22.2294979,53.1836519 17.7704878,50.3011348 17.7704878,40.4849951 Z" id="Path"></path>
                            <path d="M51.6208641,39.3044099 C51.6208641,29.8272888 60.5930771,20.8963995 70.0488221,20.8963995 C76.3884696,20.8963995 80.847713,23.5183119 80.847713,25.8124853 C80.847713,26.9322604 79.7463337,28.5163326 77.6778894,28.5163326 C74.9647352,28.5163326 73.5947266,22.3439136 67.3356679,22.3439136 C60.9422948,22.3439136 55.8383415,27.3965574 55.8383415,36.3547583 C55.8383415,45.0398432 61.9093598,51.4034434 70.1294108,51.4034434 C74.3200253,51.4034434 78.8598574,49.764748 81.6267375,44.2478071 C81.7610521,43.9746913 81.8953667,43.8654448 82.0834069,43.9200682 C82.2714474,43.9746913 82.2177215,44.2478071 82.1371328,44.3843652 C78.5912285,51.2941969 72.9500167,55.0905077 67.1476277,55.0905077 C58.0142372,55.0905077 51.6208641,48.563038 51.6208641,39.3044099 Z" id="Path"></path>
                            <path d="M84.1228896,47.7008717 C84.1228896,43.3107192 88.3592668,38.9751027 100.47096,34.2577336 L105.956525,32.1035592 C105.63065,23.8958826 103.539618,21.469028 98.8958968,21.469028 C96.9949584,21.469028 95.6371453,21.9871206 94.5237383,22.8596975 C92.296925,24.5775834 91.4550807,27.3316542 90.4774553,28.7768598 C89.8800175,29.6221686 89.309736,29.9493851 87.5445789,29.9493851 C85.9695156,29.9493851 84.9375775,29.3494883 84.9375775,28.4496435 C84.9375775,27.6588706 85.5893279,26.4045413 87.2187038,25.3683562 C89.8257049,23.6504703 95.31127,20.8963995 99.9549909,20.8963995 C106.363869,20.8963995 110.926121,24.250367 110.926121,32.839796 C110.926121,37.2299488 110.410152,44.6468526 110.410152,47.2100472 C110.410152,50.9457672 110.871809,52.7999932 112.229622,52.7999932 C113.397341,52.7999932 115.026717,50.5094789 115.759936,49.2006133 C116.085811,48.6825207 116.873343,49.2006133 116.547468,49.7187059 C115.51553,51.2184476 111.44209,55.0359715 108.889402,55.0359715 C106.418181,55.0359715 105.168994,53.3180858 105.168994,50.3731387 C105.168994,48.7915931 105.304775,46.7737589 105.440556,45.3830894 C104.055587,48.2735005 98.0540525,55.0905077 92.6228,55.0905077 C87.3273287,55.0632396 84.1228896,51.7092721 84.1228896,47.7008717 Z M95.8000828,52.1728285 C100.308022,52.1728285 104.870274,46.1465942 105.467712,43.9651517 C105.522025,43.1198429 105.929369,39.3841229 105.929369,33.9850533 C105.929369,33.5214969 105.929369,33.0579405 105.929369,32.5943838 L100.579585,34.8848983 C90.9662678,38.9478346 88.6851419,40.9111326 88.6851419,45.7648418 C88.6851419,49.3642216 91.8352684,52.1728285 95.8000828,52.1728285 Z" id="Shape"></path>
                        </g>
                    </g>
                </g>
                <g id="person">
                    <path d="M54.8122551,353.872582 C85.0837345,353.872582 109.623781,356.810936 109.623781,360.436291 C109.623781,364.061646 85.0837345,367 54.8122551,367 C24.5400462,367 0,364.061646 0,360.436291 C0,356.810936 24.5400462,353.872582 54.8122551,353.872582" id="Fill-1" fill="#F5F5F4"></path>
                    <path d="M56.6841795,43.5126109 C56.6841795,43.5126109 46.7437137,63.3889805 31.3803799,67.9070002 C16.017046,72.4242907 68.432268,67.9070002 68.432268,67.9070002 C68.432268,67.9070002 65.720834,53.4507957 69.3360793,51.6435878 C72.9505952,49.8371092 56.6841795,43.5126109 56.6841795,43.5126109" id="Fill-3" fill="#BC9084"></path>
                    <path d="M12.881572,102.822067 L14.209934,141.089949 L34.9954064,189.878728 C34.9954064,189.878728 29.5732678,215.176721 40.4175449,214.273117 C51.2618221,213.369513 41.3213563,188.975124 41.3213563,188.975124 L31.380161,137.476263 L29.5732678,95.0119826 L12.881572,102.822067 Z" id="Fill-9" fill="#BC9084"></path>
                    <path d="M71.1431914,17.3112325 C82.1238791,17.3112325 91.0248525,26.2101634 91.0248525,37.1883314 C91.0248525,48.1657701 82.1238791,57.064701 71.1431914,57.064701 C60.1632331,57.064701 51.2622598,48.1657701 51.2622598,37.1883314 C51.2622598,26.2101634 60.1632331,17.3112325 71.1431914,17.3112325" id="Fill-11" fill="#BC9084"></path>
                    <path d="M87.4098259,71.5209055 L67.8170343,63.6955057 C67.8170343,63.6955057 63.913649,64.2928032 53.0693718,65.1964072 C42.2250947,66.1000111 37.4098738,65.2474583 37.4098738,65.2474583 C37.4098738,65.2474583 14.209861,73.3281134 15.1136723,77.8454038 C16.0174837,82.3626942 25.9579495,153.739384 30.4770062,150.124968 C34.9953334,146.511281 37.706038,145.606948 37.706038,145.606948 L87.4098259,141.089658 L87.4098259,71.5209055 Z" id="Fill-13" fill="#9BADBF"></path>
                    <g id="Group-17" transform="translate(9.691534, 76.038415)">
                        <mask id="mask-4" fill="white">
                            <use xlink:href="#path-3"></use>
                        </mask>
                        <g id="Clip-16"></g>
                        <path d="M9.03716509,4.14559625e-14 L6.09594853,4.14559625e-14 C6.09594853,4.14559625e-14 2.71121518,1.80720789 2.71121518,7.22810226 C2.71121518,12.6489966 -0.000218840518,28.9116797 -0.000218840518,28.9116797 L14.4593037,28.9116797 L9.03716509,4.14559625e-14 Z" id="Fill-15" fill="#9BADBF" mask="url(#mask-4)"></path>
                    </g>
                    <path d="M66.1729585,315.01307 L66.0285237,316.311225 C65.0568718,324.588792 62.3651335,332.570991 58.1261926,339.746584 C56.1033768,343.223891 54.5539859,347.151177 55.3286813,350.248518 C57.1355745,357.47735 56.2324927,360.187432 56.2324927,360.187432 L70.6912857,360.187432 L70.6912857,357.47735 L78.7643124,359.67838 C80.5646404,360.197643 82.4816834,360.138569 84.2469969,359.509912 C86.0546196,358.832391 87.8615128,357.47735 87.8615128,354.766538 C87.8615128,352.507893 86.13632,350.405318 84.1222578,348.722821 C79.8774812,345.241138 76.8020425,340.542981 75.3110091,335.260653 L75.2103424,334.889439 L79.7067778,318.235136 L66.1729585,315.01307 Z" id="Fill-20" fill="#45435D"></path>
                    <path d="M45.3877778,84.6216312 L34.4727423,66.9936966 C33.9650323,66.1739623 33.0262064,65.7247128 32.0691439,65.8443182 L29.2227582,66.2002171 C27.8710533,66.3694149 26.9125318,67.6019336 27.081039,68.9533284 C27.0956284,69.06637 27.1175125,69.1779531 27.1474207,69.2888069 L32.735878,90.0425256 C32.735878,90.0425256 41.5733876,126.706675 33.0882113,146.321225 L32.735878,155.093987 C32.735878,155.093987 24.6023054,182.199188 26.4099281,202.979162 C28.2175508,223.759865 29.1213621,241.829756 29.1213621,241.829756 C29.1213621,241.829756 24.6023054,255.382356 26.4099281,259.899647 C26.9526526,261.254688 26.8439618,263.260266 26.4259764,265.40514 C23.8779433,278.490988 23.2199628,291.875849 23.5803202,305.203096 L23.6992236,309.592029 C23.6992236,309.592029 17.3732736,315.012924 22.7954122,315.916528 C28.2175508,316.820132 45.3877778,318.62661 45.3877778,318.62661 C45.3877778,318.62661 49.0030232,312.302112 47.1954005,311.398508 L52.6175391,281.583224 C52.6175391,281.583224 61.6541936,268.934957 60.7511117,260.803251 C60.7511117,260.803251 63.4618162,247.25065 60.7511117,240.926152 L61.6541936,201.172683 L65.2694389,249.057858 L59.8473004,308.687696 C59.8473004,308.687696 52.6175391,314.10932 57.1358663,315.916528 C61.6541936,317.723006 89.6694272,326.758316 89.6694272,322.240297 C89.6694272,317.723006 87.8618046,315.916528 87.8618046,315.916528 L99.609893,193.943852 L93.2839431,143.348595 C93.2839431,143.348595 50.8099164,139.734179 54.4251618,91.8497334 C54.4251618,91.8497334 64.8164391,70.2726339 75.0742236,66.2009464 C75.3798709,66.0871754 75.5352476,65.7480505 75.42218,65.4424734 C75.3565279,65.2667118 75.2120931,65.1325204 75.0319144,65.0807401 L70.8673794,63.8912501 C70.7535823,63.8577023 70.6324906,63.8598902 70.5201524,63.8978138 C68.7132592,64.5096974 53.045737,70.1603216 45.3877778,84.6216312" id="Fill-18" fill="#50667C"></path>
                    <path d="M28.6690917,315.464653 L28.524657,316.763538 C27.5530051,325.040375 24.8612667,333.022574 20.6230553,340.198896 C18.59951,343.676204 17.0501191,347.60276 17.8248146,350.700831 C19.6324373,357.928933 18.7286259,360.639016 18.7286259,360.639016 L33.187419,360.639016 L33.187419,357.928933 L41.2604457,360.129964 C43.0607737,360.649226 44.9785461,360.590882 46.7431301,359.962224 C48.5507528,359.283974 50.357646,357.928933 50.357646,355.218121 C50.357646,352.959476 48.6324533,350.857631 46.618391,349.174404 C42.3736144,345.69345 39.2981757,340.995293 37.8071423,335.712966 L37.7064757,335.341752 L42.1693111,316.64945 L28.6690917,315.464653 Z" id="Fill-22" fill="#45435D"></path>
                    <path d="M94.9132837,31.8170295 C94.9132837,31.8170295 96.5195731,28.203343 94.7878152,24.7253065 C94.7878152,24.7253065 93.9474676,13.5677305 80.0168097,14.0009353 C80.0168097,14.0009353 63.5629206,5.08960627 58.0393859,8.72808899 C52.5158512,12.3658424 40.2170141,29.8238499 45.412288,40.25723 C45.412288,40.25723 39.4065747,43.2779948 39.1206231,41.6516536 C38.8346715,40.0260416 34.3732428,44.3938253 40.2637001,48.1562892 C40.2637001,48.1562892 32.0185188,56.5009513 40.0339175,61.7234758 C40.0339175,61.7234758 39.6669949,54.3225292 44.315897,52.085763 C48.9647991,49.8482675 44.8958244,52.1980754 44.8958244,52.1980754 C44.8958244,52.1980754 36.9365947,62.1690787 48.8240117,66.0504187 C48.8240117,66.0504187 44.3881144,61.0000092 48.8495431,56.6314962 C48.8495431,56.6314962 47.4679299,66.833688 55.6875798,67.9079483 C55.6875798,67.9079483 51.4479095,61.8481863 53.6786238,59.6646591 C53.6786238,59.6646591 54.6247443,67.177918 59.2656223,68.0800634 L62.7466454,68.7568547 L63.9240074,62.7029271 C63.9240074,62.7029271 60.6136799,70.4364349 68.3511511,70.8929773 C68.3511511,70.8929773 64.6104372,59.1716516 69.5627981,52.2812157 C74.5144296,45.3907798 75.1563618,40.5416574 75.1563618,40.5416574 C75.1563618,40.5416574 89.3985027,32.3158714 94.9132837,31.8170295 Z" id="Fill-24" fill="#45435D"></path>
                    <path d="M42.2440609,6.89550142 C45.1064948,3.11626361 49.8465805,1.88520352 52.8301062,4.14457803 C55.8143614,6.40395254 55.9128396,11.2990209 53.0496762,15.0782587 C50.1872422,18.8567672 45.447886,20.0885566 42.4636308,17.8291821 C39.4793756,15.5698076 39.3816269,10.6747392 42.2440609,6.89550142" id="Fill-26" fill="#45435D"></path>
                    <path d="M124.023595,182.661346 L122.876142,181.129814 L131.20813,174.887727 C133.220733,173.375886 134.272626,170.903556 133.966979,168.40497 L129.839647,135.079561 C129.236377,130.155321 131.308796,125.28359 135.276375,122.302937 L144.358256,115.499288 C147.945782,112.817648 153.027259,113.54549 155.717538,117.126358 L157.820596,119.931979 L156.288712,121.079899 L154.185655,118.273549 C152.130013,115.537941 148.247782,114.981484 145.50644,117.03009 L136.424558,123.834469 C133.00554,126.402338 131.219072,130.600924 131.739183,134.843997 L135.866515,168.170136 C136.256051,171.349159 134.917476,174.494634 132.356313,176.41853 L124.023595,182.661346 Z" id="Fill-30" fill="#45435D"></path>
                    <polygon id="Fill-32" fill="#45435D" points="126.995231 185.485929 133.78877 176.541052 131.492403 173.478718 121.306836 177.897552 76.8428197 208.614252 84.7137837 219.115457"></polygon>
                    <path d="M159.02079,115.104882 C161.365301,113.347996 164.690218,113.824958 166.446778,116.168203 L202.190748,164.158627 C203.947308,166.5026 203.470965,169.826754 201.126454,171.582911 L192.547906,178.01024 C190.203394,179.766397 186.878477,179.290164 185.121917,176.94619 L149.378677,128.956496 C147.621387,126.611793 148.09773,123.288368 150.442242,121.531482 L159.02079,115.104882 Z" id="Fill-34" fill="#E9E9E9"></path>
                    <path d="M182.848875,176.042867 C182.806566,176.053806 182.761339,176.053806 182.71903,176.041408 C182.576783,175.899924 182.568759,175.821889 182.586266,175.775213 C182.645353,175.848144 182.716841,175.932013 182.81459,176.03922 L182.848875,176.042867 Z M200.515141,161.392668 L200.369976,161.198674 C200.415203,161.241703 200.458971,161.281085 200.508575,161.330678 C200.514411,161.350369 200.516599,161.372248 200.515141,161.392668 Z M199.354759,159.513604 L199.429164,159.51798 L199.29859,159.438486 L198.939691,158.958606 C198.984918,158.949125 199.043276,158.962982 199.128623,159.047581 C198.98273,158.602707 198.806928,158.798889 198.712097,158.393398 C198.70772,158.344534 198.731063,158.350369 198.763889,158.374436 L198.431981,158.081986 C198.534107,158.111158 198.560368,157.895285 198.685107,158.134496 C198.358305,157.407383 197.749928,157.268086 197.758682,156.895413 L197.812662,156.936984 C197.26775,156.337498 197.401972,156.661308 197.215228,156.658391 L196.912498,156.254358 L196.989822,155.73072 L196.748368,155.778854 C196.687822,155.684774 196.568919,155.498802 196.665209,155.478382 C196.294639,155.237712 196.629465,155.592882 196.370503,155.487133 C196.211479,154.936511 195.408335,154.361092 195.61988,154.051869 C195.368943,153.999359 195.822673,154.5405 195.385721,154.153242 C195.59289,153.793696 194.936369,153.663151 194.782451,153.166497 C195.03047,153.168685 195.225238,153.602619 195.07205,153.104507 C194.628533,153.068042 194.558504,152.298629 194.260151,152.006179 C194.036205,152.149122 193.633538,151.354184 193.146983,150.852425 C192.858843,150.263879 192.53277,149.695025 192.171683,149.148778 L192.219099,149.137839 C191.9295,149.198371 191.571331,148.63535 191.236505,148.281639 C191.376563,148.200687 191.479418,148.232047 191.693882,148.399057 L191.420331,148.035865 C191.237964,147.970228 191.079669,147.85281 190.964413,147.697469 L191.192737,147.669026 C190.70837,147.20665 190.278713,146.690304 189.91179,146.130201 C189.792887,146.182711 189.810394,146.52767 189.65137,146.566323 L189.403351,146.236679 C189.478486,146.205319 189.566022,146.22574 189.618544,146.28773 C189.565293,146.239596 189.400433,146.136765 189.34937,145.997468 L189.682737,146.158644 C189.529549,145.829729 189.458061,146.095195 189.300496,145.858172 C189.41867,145.77649 189.256728,145.629171 189.371984,145.592706 C189.427423,145.643028 189.47338,145.826812 189.58353,145.880051 C189.415752,145.64157 189.304873,145.368082 189.259646,145.080008 C189.210771,145.151479 189.104269,145.195967 188.948892,145.020205 C188.576863,144.541784 188.962752,144.750364 188.810293,144.422908 C188.642515,144.366022 188.493704,143.994079 188.314984,144.115143 C188.209941,143.972929 188.270486,143.886142 188.276322,143.796438 C188.012255,143.603173 187.376158,142.641225 187.404607,143.061303 L187.440351,143.134233 L187.402419,143.099226 C186.614593,142.405661 186.219951,141.318273 185.53425,140.557612 L185.593337,140.515313 C185.215473,140.04856 184.801864,139.61025 184.356888,139.206218 C184.249657,139.061816 184.207347,138.787599 184.322603,138.797809 C184.012579,138.541824 183.76456,138.220203 183.596053,137.855552 C183.977565,138.154565 183.588758,137.65937 183.957869,138.183737 C183.644198,137.663017 183.65514,137.484338 183.108039,137.082493 C183.388154,137.148859 183.021232,136.579275 182.80458,136.382364 L182.953391,136.800983 C182.759353,136.574899 182.581362,136.334959 182.421609,136.083351 L182.709019,136.062201 C182.203498,134.89459 180.969237,134.578073 180.799271,133.528609 C180.467363,133.368163 181.107107,134.137576 180.772281,134.022346 C180.570218,133.603727 180.40317,133.168334 180.274783,132.721273 C179.914426,132.016768 179.554798,132.351517 179.139001,131.644095 C179.132436,131.779745 179.006238,131.997077 178.575851,131.558038 C178.259992,131.083263 178.446006,130.780603 178.717368,131.026377 C178.805634,131.131397 178.823141,131.20068 178.796151,131.213078 C178.931103,131.341435 179.106175,131.512821 179.045629,131.275798 L178.931832,131.268505 C178.833354,130.989912 178.356281,130.368548 178.580228,130.430539 C178.256344,130.135172 178.356281,130.368548 178.511658,130.650058 C178.173914,129.99077 177.830335,129.735515 177.446634,129.08352 C177.48019,129.207501 177.464871,129.356278 177.394113,129.26074 C176.818562,128.314107 176.97175,128.970478 176.493219,128.395789 C176.344408,127.976441 176.836069,128.327964 176.296992,127.792657 C176.092741,127.37185 176.422461,127.577513 176.58878,127.681074 C176.199243,127.271936 175.896514,126.788409 175.698099,126.258937 L175.97019,126.50617 C175.830862,126.374896 175.705393,126.229035 175.595244,126.072236 L175.579925,126.340618 C175.47707,126.153188 175.369838,126.008787 175.430384,125.968675 C175.208625,125.862197 175.299809,126.274981 174.916109,126.021914 C174.816901,125.742592 174.32451,125.38961 174.449978,125.173737 C174.919756,125.931481 174.575447,124.957134 175.056166,125.536929 C174.92778,125.411489 174.820548,125.266358 174.738848,125.106641 C174.740307,125.0658 174.795017,125.102265 174.840244,125.140189 C174.494476,124.337229 174.398186,124.983389 173.873698,124.275238 C174.044394,124.286907 173.947374,123.964556 173.839413,123.8661 C174.05023,124.151986 173.768655,124.131566 173.493645,123.930279 C173.235413,123.41758 173.065447,123.483946 172.89694,123.24036 L173.0618,123.538644 C172.889645,123.524787 172.733539,123.288494 172.465095,122.997503 C172.525641,122.910716 172.734998,123.242548 172.686124,123.103251 C172.241877,122.889566 172.281998,122.171205 171.793984,121.775194 C171.694776,121.496601 171.971974,121.607455 171.870578,121.373349 C171.326395,120.927017 171.568578,120.674679 171.027313,120.18313 C171.0171,120.363511 170.834787,120.175563 170.480373,119.619288 C170.042692,118.906032 169.098031,117.852192 169.397113,118.158498 C169.12575,117.793848 168.881378,117.423363 168.859494,117.560471 C168.839799,117.515255 168.815726,117.472955 168.786548,117.433573 L168.735485,117.367936 C168.717248,117.348974 168.693176,117.403672 168.670562,117.421175 L168.362726,117.799682 C168.211727,118.030871 168.01477,118.228511 167.784987,118.380206 C167.683591,118.567636 167.716417,118.746315 167.419524,119.019803 C167.369191,119.028554 167.375756,118.962917 167.375756,118.962917 C167.388886,119.052621 167.056978,119.401956 167.367732,119.326838 C166.426717,119.607619 165.607524,121.031944 164.77666,121.250734 C164.348462,121.700713 163.819597,122.228727 163.397965,122.599941 C163.397235,122.543785 163.352738,122.544514 163.443192,122.4869 C162.769163,122.889474 163.352008,123.115557 162.575124,123.566265 C162.079086,123.67566 162.85524,123.170255 162.582419,123.282567 C162.185588,122.995222 161.807723,124.014785 161.166521,124.165751 L161.260622,124.054897 C160.81054,124.213884 160.509999,124.883383 159.900164,125.306377 C159.900164,125.306377 159.903081,125.250951 159.860043,125.246575 C159.441328,125.859917 158.927053,126.401787 158.337642,126.853225 C158.411319,126.573903 158.544811,126.586301 158.325241,126.511183 C158.08014,126.717575 158.578367,126.70226 158.086705,127.115773 C157.858382,127.153697 157.431643,127.346962 157.266053,127.21277 L157.751879,126.860518 C157.354319,126.827699 157.11943,127.310497 156.83129,127.450522 L156.801382,127.333834 C156.064619,127.881539 156.204677,128.118562 155.36287,128.641471 L155.494904,128.658974 C155.189257,129.190635 155.025126,128.763264 154.67717,129.2271 L154.3883,129.066653 C153.928735,129.513715 153.439262,129.927958 152.923528,130.307924 C153.266378,129.882012 153.646431,129.488189 154.06004,129.130832 C153.643513,129.343788 153.267837,129.626757 152.94833,129.968069 C153.05848,129.87326 153.177383,129.720836 153.321088,129.689476 C152.978968,130.175191 152.517214,130.563908 151.979596,130.818434 C151.928533,130.531819 151.314321,130.808953 150.571722,131.172145 L150.290876,131.309254 L150.14863,131.379267 C150.101944,131.403334 150.026809,131.420108 150.088084,131.468971 C150.202611,131.632334 150.312761,131.79351 150.40905,131.948122 C150.581205,132.18952 150.703756,132.463008 150.769408,132.752541 C150.926973,132.931219 151.08162,133.10771 151.236997,133.283472 C151.340581,133.402348 151.43906,133.52487 151.53462,133.65031 C151.725011,133.901919 152.031956,135.273826 152.850419,135.973955 L152.538936,135.79236 C152.928472,136.173784 153.730158,137.385882 154.334158,137.593733 C154.350206,137.70167 154.327593,137.875243 154.159815,137.705316 C154.890013,138.768637 156.186278,139.772884 156.610099,140.70639 L156.464205,140.693262 C156.634172,140.867565 156.879273,140.905489 156.971916,141.212525 C156.926688,141.227111 156.826751,141.200856 156.888756,141.293477 C157.15793,141.476532 157.387712,141.710637 157.564973,141.983396 L157.303824,141.838994 C157.943567,142.930758 158.700026,143.204246 159.392292,144.00283 C159.13406,144.193178 159.643958,145.047189 159.898543,145.47383 L159.851857,145.487687 C160.658649,146.492664 161.534011,147.441484 162.470648,148.327585 C162.696783,149.210039 164.063807,150.696355 164.71887,151.896055 C164.641546,151.695497 164.939169,151.772803 165.109135,151.945647 C165.247734,152.238826 165.813802,152.514502 165.547546,152.650882 L165.484082,152.556802 C165.396546,152.921452 165.849546,153.397686 166.148628,153.81047 L166.507526,153.646377 C166.858401,155.048094 168.76596,156.316348 168.800975,157.198803 C169.070149,157.398631 169.308685,157.718065 169.5764,157.915705 L169.401327,158.02583 C169.83755,158.711373 170.31754,159.369202 170.83911,159.992755 L170.586714,159.901592 C170.94853,160.406998 171.532834,160.172163 171.886626,160.624329 L171.742921,160.94668 C172.397254,161.810902 172.837853,162.850156 173.704462,163.540075 C173.657776,163.552473 173.567321,163.580916 173.452065,163.448183 C173.751148,163.860967 174.468215,165.15183 174.695809,164.749985 C174.482804,164.925017 175.345036,165.660882 175.79293,166.056163 L175.575548,166.105026 C175.98405,166.240676 176.345867,166.490097 176.617958,166.824117 C176.694552,166.970707 176.573461,167.036344 176.484466,166.830681 C176.72592,167.330252 176.893697,167.055306 177.202262,167.648227 L176.951325,167.529351 C177.089195,167.790441 177.327002,167.983706 177.610035,168.066117 C177.886504,168.298764 178.20674,168.947842 178.108992,169.123603 C178.367953,169.167361 178.588982,169.333642 178.703508,169.568477 C178.675059,169.646512 178.568557,169.57577 178.515306,169.540034 C178.966847,170.372896 179.540209,170.512922 179.767073,171.148872 C179.726953,171.191901 179.714552,171.253892 179.734977,171.308589 C179.292919,170.709833 178.942045,170.223389 178.987272,170.259125 C178.837731,170.372167 179.171827,170.872467 178.677977,170.645655 C179.230914,170.984779 179.713822,171.425277 180.101899,171.945269 C180.106276,171.978817 180.104817,172.013094 180.096793,172.045912 L180.043542,172.010177 C180.105547,172.118843 180.189436,172.213652 180.290102,172.28877 C180.360131,172.436088 180.442561,172.576844 180.535933,172.711035 C180.453503,172.859083 180.882431,173.312708 181.056773,173.557024 C181.205585,173.414081 181.414942,173.748101 181.329595,173.35282 C181.346372,173.399495 181.276343,173.322189 181.149416,173.167577 C181.121696,173.134759 181.0896,173.104128 181.056044,173.077873 L181.083034,173.083708 L180.624928,172.495162 C180.884619,172.61185 181.084493,172.83137 181.176406,173.101211 C181.374092,173.145698 181.584179,173.199667 181.69214,173.23759 C181.696683,173.367389 182.591111,172.753853 184.375427,171.396982 C184.67537,171.168893 185.352694,170.230149 185.702929,169.96005 C186.349114,169.461716 186.728661,169.58153 187.546041,168.940193 C187.871743,168.68464 188.072476,168.091393 188.51466,167.741345 C188.844243,167.480435 189.389393,167.483722 189.783689,167.170315 C190.331044,166.735248 190.940752,166.249599 191.612811,165.713367 C191.789173,165.57265 191.986753,165.414872 192.205553,165.240036 C192.498423,165.006011 192.829311,164.741422 193.198215,164.446268 C193.427991,164.262429 193.885485,163.23715 194.235941,162.956498 C194.667218,162.611124 195.022497,162.985477 195.636535,162.493489 C195.973401,162.22358 196.457427,161.8357 197.088613,161.32985 C197.155686,161.276096 197.463643,160.907897 197.549158,160.839361 C197.840899,160.605546 198.442766,160.163627 199.354759,159.513604 Z" id="Fill-58" fill="#F5F5F4"></path>
                    <path d="M75.2371869,100.111766 L76.5655488,138.379648 L97.3502918,187.168427 C97.3502918,187.168427 91.9281532,212.465691 102.77316,211.562816 C113.617437,210.659212 103.676242,186.264093 103.676242,186.264093 L93.7357759,134.765962 L91.9281532,92.3016813 L75.2371869,100.111766 Z" id="Fill-78" fill="#BC9084"></path>
                    <polygon id="Fill-80" fill="#9BADBF" points="82.8916446 73.3277487 83.3884126 69.91462 87.4099718 71.5212702 100.061872 91.3976397 73.8542607 104.95024"></polygon>
                    <path d="M40.6227444,9.36403946 C40.0822083,4.65421357 42.6586907,0.490634136 46.3775206,0.0639930486 C46.4191003,0.0596172426 46.46068,0.0618051456 46.5029891,0.0574293396 C46.0383178,-0.0103956539 45.5663517,-0.0184179649 45.0994919,0.0348210084 C41.3806621,0.461462096 38.8041797,4.62504153 39.3447158,9.33486742 C39.8794161,13.990725 43.2612316,17.4308379 46.9311871,17.0953594 C43.783531,16.638817 41.093981,13.4729213 40.6227444,9.36403946" id="Fill-5" fill="#282741"></path>
                    <path d="M43.9559043,15.7493615 C39.4652969,14.2294982 36.797631,10.1228042 37.998336,6.57840134 C38.0121959,6.53828979 38.031162,6.50182474 38.0457514,6.46171318 C37.7860607,6.85334782 37.5774327,7.27634241 37.4264327,7.72121602 C36.2257278,11.2663482 38.8933937,15.3715836 43.3840011,16.8921762 C47.8242752,18.3952655 52.3790759,16.8053893 53.6417857,13.3433975 C51.8852258,15.9944066 47.8746086,17.07596 43.9559043,15.7493615" id="Fill-7" fill="#282741"></path>
                    <path d="M55.0254413,10.5537482 C53.2273017,11.2349153 51.6633215,12.4178416 50.5180561,13.9617718 C49.4997182,15.2861824 48.8213126,16.8395936 48.5426557,18.4863552 C50.3407953,17.8051881 51.905505,16.6222619 53.0500409,15.0783316 C54.0683788,13.753921 54.7467844,12.2005099 55.0254413,10.5537482" id="Fill-28" fill="#9BADBF"></path>
                </g>
            </g>
        </g>
    </g>
</svg>