<?xml version="1.0" encoding="UTF-8"?>
<svg width="32px" height="32px" viewBox="0 0 32 32" version="1.1" xmlns="http://www.w3.org/2000/svg" xmlns:xlink="http://www.w3.org/1999/xlink">
    <g id="Gesundheitsamt" stroke="none" stroke-width="1" fill="none" fill-rule="evenodd">
        <g id="Level-2-/-Benachrichtigung" transform="translate(-1336.000000, -1020.000000)">
            <g id="Group" transform="translate(1336.000000, 1020.000000)">
                <circle id="Oval-Copy" fill="#C3CED9" cx="16" cy="16" r="16"></circle>
                <g transform="translate(8.000000, 8.000000)">
                    <path d="M7.19216122,12.1708643 C8.20284419,11.7250788 9.3833502,12.1814783 9.82913568,13.1921612 C10.2761005,14.2016649 9.81852174,15.3821709 8.80783878,15.8291357 C7.79833514,16.2749212 6.61782913,15.8185217 6.17086432,14.8078388 C5.72507883,13.7983351 6.18147826,12.6166498 7.19216122,12.1708643" id="Fill-4" fill="#020203"></path>
                    <path d="M2,13 C1.44771525,13 1,12.5522847 1,12 C1,11.4871642 1.38604019,11.0644928 1.88337887,11.0067277 L2,11 L3,11 L3,4.64285714 C3,2.14798009 5.11920732,0.112715609 7.77728041,0.0045237217 L8,0 C10.7614237,0 13,2.07867795 13,4.64285714 L13,4.64285714 L13,11 L14,11 C14.5522847,11 15,11.4477153 15,12 C15,12.5128358 14.6139598,12.9355072 14.1166211,12.9932723 L14,13 L2,13 Z M8,2 C6.34314575,2 5,3.34314575 5,5 L5,5 L5,11 L11,11 L11,5 C11,3.46149248 9.84187943,2.19347852 8.34986338,2.02018319 L8.17627279,2.00509269 Z" id="Combined-Shape" fill="#000000" fill-rule="nonzero"></path>
                </g>
            </g>
        </g>
    </g>
</svg>
