<?xml version="1.0" encoding="UTF-8"?>
<svg width="92px" height="120px" viewBox="0 0 92 120" version="1.1" xmlns="http://www.w3.org/2000/svg" xmlns:xlink="http://www.w3.org/1999/xlink">
    <defs>
        <polygon id="path-1" points="-7.1799486e-16 0 92 0 92 68.0666604 -7.1799486e-16 68.0666604"></polygon>
        <polygon id="path-3" points="0 -1.08281276e-14 15.4160273 -1.08281276e-14 15.4160273 0.784220548 0 0.784220548"></polygon>
        <polygon id="path-5" points="-2.70303947e-15 -1.08281276e-14 15.4160273 -1.08281276e-14 15.4160273 0.784220548 -2.70303947e-15 0.784220548"></polygon>
    </defs>
    <g id="Webapp" stroke="none" stroke-width="1" fill="none" fill-rule="evenodd">
        <g id="Download_Modal_black" transform="translate(-134.000000, -48.000000)">
            <g id="Download_White" transform="translate(134.000000, 48.000000)">
                <g id="Group-54">
                    <path d="M45.7542137,102.936724 C46.500786,104.397881 47.1991401,109.298533 47.4294838,111.6609 C47.6598275,114.023077 46.5903747,114.680745 47.2694226,115.765493 C48.159603,117.186647 54.4823567,114.449585 54.1940943,114.372817 C51.8060141,113.737055 51.6738185,112.156461 51.6803807,109.333012 C50.5628048,107.273048 51.0257747,106.580901 50.5581447,104.283777 L45.7542137,102.936724 Z" id="Fill-1" fill="#BC9084"></path>
                    <path d="M51.6950173,110.550303 C50.5832428,111.059865 49.2906742,111.298073 47.4294743,111.559997 L47.2402159,110.000547 L51.9107149,107.613417 C51.9107149,107.613417 51.5666259,110.023597 51.6950173,110.550303" id="Fill-3" fill="#AD8379"></path>
                    <path d="M7.30027376,104.390518 C7.62838513,105.621182 8.30819386,109.775016 8.39017415,111.343419 C8.48023835,113.065929 8.16610737,113.384334 7.85568548,114.023144 C8.20662199,115.663266 17.0551676,116.108538 17.3509434,116.042914 C17.6467191,115.977099 11.8726247,115.802705 12.1848535,110.744327 C12.3224701,108.515208 12.8315658,104.392519 12.8315658,104.392519 L7.30027376,104.390518 Z" id="Fill-5" fill="#BC9084"></path>
                    <path d="M8.16610737,108.153171 L12.4065427,108.153171 C12.4065427,108.153171 12.2964114,109.143817 12.1826661,110.22104 C10.678965,110.24809 9.05780947,109.545561 8.38190004,109.208393 C8.29373794,108.767408 8.21499121,108.396047 8.16610737,108.153171" id="Fill-7" fill="#AD8379"></path>
                    <path d="M36.4985437,7.91492317 C33.7682766,13.5770609 32.5879316,17.6582232 33.7029397,20.5051027 L26.69838,18.2747455 L34.6308767,7.19867913 L36.5614079,7.63909302 L36.4985437,7.91492317 Z" id="Fill-9" fill="#72675D"></path>
                    <path d="M24.4051097,18.185034 C25.4419417,17.403928 25.8189369,16.4785254 25.7560726,13.7732755 C25.6933035,11.0679304 31.7869499,12.2633531 31.7869499,12.2633531 C31.7869499,12.2633531 31.2843214,17.0447583 33.4202789,17.403928 C35.7803031,17.8007196 33.106243,24.0282329 33.106243,24.0282329 C33.106243,24.0282329 26.2990256,22.7070865 26.2474789,22.4553533 C26.195837,22.2037155 24.4051097,18.185034 24.4051097,18.185034" id="Fill-11" fill="#BC9084"></path>
                    <path d="M31.7549662,14.1247018 C31.7549662,14.1247018 31.8839282,15.5030906 32.0573993,15.9420758 C31.0840973,15.8635938 28.9209399,14.5026348 27.8056465,12.214559 C26.6903531,9.92648311 31.7549662,14.1247018 31.7549662,14.1247018" id="Fill-13" fill="#AD8379"></path>
                    <path d="M70.755806,39.0962072 C67.9998607,38.5196879 68.541292,37.2455927 65.8223424,37.4631327 C63.1033928,37.6806728 49.8166891,30.3096454 49.3455402,30.0315294 C48.8743912,29.7534134 41.8332162,19.2043388 36.9976154,18.3473223 C32.1620145,17.4902106 35.8703388,24.4686372 38.1319297,26.3561117 C40.3935206,28.2434909 45.7909051,33.8384807 47.2057785,34.5166267 C48.9971715,35.342498 66.3085179,41.1723625 66.3085179,41.1723625 L70.755806,39.0962072 Z" id="Fill-15" fill="#BC9084"></path>
                    <path d="M18.0280702,23.8384091 C16.4166153,25.2235603 15.7529744,31.6076568 16.96109,40.3649783 C13.9064206,50.0522742 13.0740639,55.6692656 12.5635416,56.9584096 C12.2222107,57.4779723 9.7639432,58.967036 10.2480264,61.2319673 C10.5080427,62.448725 11.4328413,63.4754684 12.2495058,63.5383302 C13.0661702,63.6012873 14.8251325,61.0847182 14.8251325,60.0780715 C14.8251325,59.0714248 14.5935524,58.1970737 14.864601,56.9584096 C15.1356495,55.7198408 21.8414852,44.1224974 22.0307436,42.6912475 C22.2200021,41.2599976 21.7355385,30.9488456 21.7355385,28.1176815 C21.7355385,25.2865174 19.5127504,22.5622185 18.0280702,23.8384091" id="Fill-17" fill="#BC9084"></path>
                    <path d="M24.9596655,42.2314798 L38.2775636,42.6591308 L37.6708904,46.2369222 C37.6708904,46.2369222 53.5231398,83.2304504 55.6590022,109.350404 C55.6002275,109.826534 47.0882575,110.689837 43.7112782,109.350404 C41.9011495,104.090582 39.074256,89.442915 39.074256,82.5303028 C39.074256,75.6177859 20.318649,90.7172007 20.318649,90.7172007 C20.318649,90.7172007 17.9472121,106.660583 16.9475661,110.346383 C14.9732867,110.862898 5.49999797,108.027448 4.09045052,106.660583 C4.88514578,103.223374 5.74679478,85.1515465 14.6045656,75.0516483 C14.6734214,67.0207621 12.6193491,58.5193645 17.0239352,52.3081381 C20.1176926,47.9454309 22.7406815,46.48856 24.9596655,42.2314798" id="Fill-19" fill="#50667C"></path>
                    <g id="Group-23" transform="translate(0.000000, 36.124524)">
                        <mask id="mask-2" fill="white">
                            <use xlink:href="#path-1"></use>
                        </mask>
                        <g id="Clip-22"></g>
                        <path d="M89.0068634,42.7599063 L17.9296653,67.8111129 C15.5962703,68.6333649 13.0390939,67.4058445 12.2179595,65.0690984 L0.25520895,31.0269337 C-0.565925432,28.6900923 0.659879647,26.1292341 2.9930844,25.3067916 L74.0703776,0.255585005 C76.4036775,-0.566762203 78.9608539,0.660853406 79.7819883,2.99759957 L91.744834,37.0397643 C92.5659683,39.3766057 91.3401633,41.9374638 89.0068634,42.7599063" id="Fill-21" fill="#C5C3BE" mask="url(#mask-2)"></path>
                    </g>
                    <path d="M24.4051097,18.185034 C21.3408348,20.1905173 18.4791329,23.3017976 18.0280511,23.8384091 C19.3482952,24.4686468 20.918855,26.6706209 21.6559168,32.395811 L24.9596655,42.2314988 L38.2775636,42.6591499 C38.2775636,42.6591499 38.5088583,35.2269751 38.7601251,34.3461473 C39.0113918,33.4654148 40.3020583,31.3706867 40.3306849,30.0315389 C40.3592163,28.6922959 37.6675617,24.7820988 37.7426945,23.3985667 C37.8178272,22.0149395 37.4806809,18.9263275 37.5235732,18.4888663 C36.9578901,18.349332 33.7152938,17.403928 33.4202789,17.403928 C33.125359,17.403928 33.8286586,21.7633016 30.6876342,21.8262587 C27.5465146,21.8892158 24.467974,19.1557733 24.4051097,18.185034" id="Fill-24" fill="#9BADBF"></path>
                    <path d="M33.4345351,14.3702535 C34.938997,14.3702535 36.2060776,10.4651996 36.2060776,9.06699979 C36.2060776,7.6688 35.2096652,3.39133728 32.7383683,2.7855777 C30.2670715,2.17981811 26.0185522,2.36554629 25.9647229,4.73810466 C25.9107986,7.11066303 26.7191889,10.695693 27.0953282,11.3005001 C27.4713723,11.9053073 30.5332697,14.3702535 33.4345351,14.3702535" id="Fill-26" fill="#BC9084"></path>
                    <path d="M36.078932,7.91492317 L36.9015881,7.91492317 C37.3680769,7.91492317 37.7111197,7.50622594 37.6670862,7.04123879 C37.0220858,0.225776753 26.7192935,-3.29743909 23.7876897,4.21026518 C22.3231717,7.96064087 23.6829794,7.92225705 20.1318632,21.6626179 C20.1318632,21.6626179 22.5397252,19.4993132 24.4051097,18.1850245 C26.7833941,16.5093754 28.2397331,12.1990531 28.0176635,11.3353694 C27.9220832,10.9636273 26.2587012,9.52656749 27.2009991,8.04807598 C27.6184138,7.39316987 28.63185,8.29171325 29.1794631,8.43096176 C29.7766258,8.58287788 30.0878085,8.03016988 30.0593722,7.10438637 C30.0176212,5.74514187 30.1846252,4.34665634 32.9177454,4.75554406 C35.0850874,4.62972512 34.3934857,2.82616168 36.078932,7.91492317" id="Fill-28" fill="#72675D"></path>
                    <path d="M32.9177264,4.36760076 C32.3497608,4.3577905 30.4809525,4.97574147 30.9926161,8.11102355" id="Stroke-30" stroke="#72675D" stroke-width="0.5" stroke-linecap="round"></path>
                    <g id="Group-34" transform="translate(46.015621, 119.215779)">
                        <mask id="mask-4" fill="white">
                            <use xlink:href="#path-3"></use>
                        </mask>
                        <g id="Clip-33"></g>
                        <path d="M15.4082693,0.0901019758 C15.4664734,0.450414634 15.1898137,0.777962937 14.8252772,0.778153428 L0.488807299,0.784249243 C0.21614199,0.784439612 -0.00431081278,0.56023237 0,0.287069086 C0.00158568151,0.191728623 0.00462903341,0.0983883097 0.00900385175,0.00685765566 L15.3924819,-1.08281276e-14 C15.3981882,0.0300022435 15.403419,0.0600044871 15.4082693,0.0901019758" id="Fill-32" fill="#D8C3BC" mask="url(#mask-4)"></path>
                    </g>
                    <path d="M47.2200727,114.023124 C45.8589336,114.911381 46.0204214,116.905911 46.0226088,119.229609 L61.4223498,119.215989 C61.4223498,119.215989 61.8230261,116.289961 58.6954114,115.897074 C54.4739019,115.366749 53.8691309,113.825776 52.7273984,113.401554 C52.3167361,113.248876 51.4500465,114.156373 52.2038467,114.512971 C50.9291578,114.965671 49.280517,115.42561 47.2200727,114.023124" id="Fill-35" fill="#FFFFFF"></path>
                    <line x1="52.6276715" y1="116.042437" x2="53.9819631" y2="114.023144" id="Stroke-37" stroke="#A5A9AD" stroke-width="0.5" stroke-linecap="round"></line>
                    <line x1="53.7236491" y1="116.13833" x2="54.9241563" y2="114.320099" id="Stroke-39" stroke="#A5A9AD" stroke-width="0.5" stroke-linecap="round"></line>
                    <line x1="54.8196743" y1="116.234128" x2="55.8662069" y2="114.616959" id="Stroke-41" stroke="#A5A9AD" stroke-width="0.5" stroke-linecap="round"></line>
                    <g id="Group-45" transform="translate(6.651215, 119.215779)">
                        <mask id="mask-6" fill="white">
                            <use xlink:href="#path-5"></use>
                        </mask>
                        <g id="Clip-44"></g>
                        <path d="M15.4082693,0.0901019758 C15.4664734,0.450414634 15.1898137,0.777962937 14.8252772,0.778153428 L0.488807299,0.784249243 C0.21614199,0.784439612 -0.00431081278,0.56023237 -2.70303947e-15,0.287069086 C0.00158568151,0.191728623 0.00462903341,0.0983883097 0.00900385175,0.00685765566 L15.3923868,-1.08281276e-14 C15.3981882,0.0300022435 15.403419,0.0600044871 15.4082693,0.0901019758" id="Fill-43" fill="#D8C3BC" mask="url(#mask-6)"></path>
                    </g>
                    <path d="M7.85567597,114.023124 C6.49453683,114.911381 6.65602469,116.905911 6.6582121,119.229609 L22.0579531,119.215989 C22.0579531,119.215989 22.4586294,116.289961 19.3310147,115.897074 C15.1095052,115.366749 14.5047341,113.825776 13.3630016,113.401554 C12.9523393,113.248876 12.0856498,114.156373 12.83945,114.512971 C11.5647611,114.965671 9.9161203,115.42561 7.85567597,114.023124" id="Fill-46" fill="#FFFFFF"></path>
                    <line x1="13.2632653" y1="116.042437" x2="14.6175569" y2="114.023144" id="Stroke-48" stroke="#A5A9AD" stroke-width="0.5" stroke-linecap="round"></line>
                    <line x1="14.3592524" y1="116.13833" x2="15.5597596" y2="114.320099" id="Stroke-50" stroke="#A5A9AD" stroke-width="0.5" stroke-linecap="round"></line>
                    <line x1="15.4552775" y1="116.234128" x2="16.5018102" y2="114.616959" id="Stroke-52" stroke="#A5A9AD" stroke-width="0.5" stroke-linecap="round"></line>
                </g>
                <g id="Group" transform="translate(45.673759, 69.836066) rotate(-21.000000) translate(-45.673759, -69.836066) translate(36.539007, 60.327869)" stroke="#000000" stroke-linecap="round" stroke-width="2.62295082">
                    <line x1="9.13475177" y1="11.147541" x2="9.13475177" y2="0" id="Path-19"></line>
                    <polyline id="Rectangle" stroke-linejoin="round" points="18.2695035 15.0819672 18.2695035 19.0163934 0 19.0163934 0 15.0819672"></polyline>
                    <polyline id="Path-20" stroke-linejoin="round" points="5.87234043 9.18032787 9.13475177 13.1147541 12.3971631 9.18032787"></polyline>
                </g>
            </g>
        </g>
    </g>
</svg>