<?xml version="1.0" encoding="UTF-8"?>
<svg width="600px" height="400px" viewBox="0 0 600 400" version="1.1" xmlns="http://www.w3.org/2000/svg" xmlns:xlink="http://www.w3.org/1999/xlink">
    <g id="Webapp" stroke="none" stroke-width="1" fill="none" fill-rule="evenodd">
        <g id="ErrorPage" transform="translate(-212.000000, -409.000000)">
            <g id="undraw_Notify_re_65on" transform="translate(212.000000, 409.000000)">
                <path d="M545.406551,396.954315 L527.960526,344.614682 C527.960526,344.614682 547.14999,363.691745 547.14999,379.344717 L543.705731,343.147208 C543.705731,343.147208 553.546481,356.354408 552.562403,376.409785 C551.578326,396.465162 545.406551,396.954315 545.406551,396.954315 Z" id="Path" fill="#819E57"></path>
                <path d="M178.30129,349.238579 L160.855263,296.898941 C160.855263,296.898941 180.044726,315.976004 180.044726,331.628985 L176.60047,295.431472 C176.60047,295.431472 186.441222,308.638673 185.457139,328.694046 C184.473057,348.74942 178.30129,349.238579 178.30129,349.238579 Z" id="Path" fill="#819E57"></path>
                <path d="M438.157895,374.196684 C438.186655,408.979738 372.075818,398.280523 291.140674,398.353416 C210.205529,398.426308 145.094568,409.243681 145.065789,374.460683 C145.03703,339.677685 211.123679,332.05312 292.058824,331.979695 C372.993969,331.907319 438.129116,339.41363 438.157895,374.196684 Z" id="Path" fill="#56534D"></path>
                <rect id="Rectangle" fill="#C5C3BE" x="0" y="396.954315" width="600" height="3.04568528"></rect>
                <polygon id="Path" fill="#A0616A" fill-rule="nonzero" points="382.894737 329.949239 371.527863 329.949239 366.118421 287.309645 382.894737 287.309645"></polygon>
                <path d="M361.760167,323.857868 L382.894737,323.857868 L382.894737,338.071066 L350.328947,338.071066 L350.328947,336.770843 C350.328947,329.639195 355.446892,323.857868 361.760167,323.857868 L361.760167,323.857868 Z" id="Path" fill="#FFFFFF" fill-rule="nonzero"></path>
                <polygon id="Path" fill="#A0616A" fill-rule="nonzero" points="459.868421 391.878173 448.501548 391.878173 443.092105 349.238579 459.868421 349.238579"></polygon>
                <path d="M440.707536,385.786802 L461.842105,385.786802 L461.842105,400 L429.276316,400 L429.276316,398.699777 C429.276316,391.568129 434.39426,385.786802 440.707536,385.786802 L440.707536,385.786802 Z" id="Path" fill="#FFFFFF" fill-rule="nonzero"></path>
                <path d="M507.448686,268.049926 C508.900511,266.193006 509.497917,263.753209 509.08015,261.387049 C508.662384,259.020889 507.272361,256.97143 505.284115,255.790152 L481.193062,152.284264 L465.789474,159.274172 L494.444016,259.355585 C492.746598,263.091944 493.967075,267.576819 497.284903,269.794971 C500.602732,272.013123 504.969205,271.263432 507.448686,268.049926 Z" id="Path" fill="#A48273" fill-rule="nonzero"></path>
                <path d="M489.951754,59.501446 C488.159794,57.6669149 485.630117,56.7039042 483.043404,56.8715397 C480.456691,57.0391752 478.078656,58.3202369 476.549177,60.3700184 L438.157895,64.686306 L443.998012,79.1878173 L478.912603,72.788605 C482.681952,75.127954 487.642261,74.336685 490.45864,70.9467803 C493.275018,67.5568755 493.057254,62.6398292 489.951754,59.501446 L489.951754,59.501446 Z" id="Path" fill="#A48273" fill-rule="nonzero"></path>
                <path d="M427.302632,256.280846 L443.626023,382.741117 L463.942709,378.423449 C463.942709,378.423449 460.954924,286.325405 471.113312,275.222729 C481.2717,264.120053 458.047563,244.670051 458.047563,244.670051 L427.302632,256.280846 Z" id="Path" fill="#50667C"></path>
                <path d="M432.865977,220.940404 L425.165692,232.530186 C425.165692,232.530186 365.873501,207.805867 365.873501,247.210576 C365.873501,286.615286 362.480517,313.356892 361.25333,315.203963 C360.026144,317.051034 375.450822,321.843942 382.814127,320.612528 C382.814127,320.612528 391.898053,257.085967 391.28444,253.391793 C391.28444,253.391793 449.447423,282.00569 460.49238,279.542907 C471.537337,277.080125 474.146771,268.361859 475.98757,263.436271 C477.82837,258.510683 475.217542,219.3951 475.217542,219.3951 L438.402481,208.121827 L432.865977,220.940404 Z" id="Path" fill="#50667C"></path>
                <path d="M435.349602,149.238579 L433.207533,146.572961 C433.207533,146.572961 409.216346,90.5950172 418.641449,75.4898572 C428.066552,60.3846972 469.194318,58.1633529 470.479572,59.0518844 C471.764827,59.9404159 467.409709,71.4766115 470.408584,76.8078706 C470.408584,76.8078706 438.548704,83.9708705 436.406613,84.8594098 C434.264521,85.7479491 452.914583,118.58397 452.914583,118.58397 L450.772522,138.576084 L435.349602,149.238579 Z" id="Path" fill="#9BADBF"></path>
                <path d="M476.066534,121.922721 C476.066534,121.922721 453.777805,124.615035 452.920514,124.615035 C452.063224,124.615035 451.634642,118.781726 451.634642,118.781726 L431.917642,147.05083 C431.917642,147.05083 422.203717,229.062951 424.775499,227.716798 C427.34728,226.370645 474.780655,234.101737 475.209296,230.512014 C475.637938,226.922291 474.780655,208.973644 476.066564,208.076203 C477.352474,207.178762 498.355263,151.538002 498.355263,151.538002 C498.355263,151.538002 496.212116,139.871384 488.925405,135.832933 C481.638694,131.794481 476.066534,121.922721 476.066534,121.922721 Z" id="Path" fill="#9BADBF"></path>
                <path d="M492.387266,144.162437 L499.621555,151.648267 C499.621555,151.648267 510.37026,237.667556 504.492402,240.309618 C498.614544,242.95168 487.043179,242.626952 487.043179,242.626952 L475.657895,201.847393 L492.387266,144.162437 Z" id="Path" fill="#9BADBF"></path>
                <ellipse id="Oval" fill="#A48273" fill-rule="nonzero" cx="455.921053" cy="97.4619289" rx="20.7236842" ry="21.319797"></ellipse>
                <path d="M448.89956,99.3013062 C448.624771,95.0934309 443.299366,94.9492512 439.069428,94.9094095 C434.839491,94.8695678 429.782347,95.0200928 427.388899,91.5432097 C425.807165,89.2454545 426.109292,86.055555 427.416035,83.5920414 C428.722777,81.1285279 430.872201,79.2338034 432.986782,77.4110412 C438.446124,72.7051334 444.072656,68.0365709 450.627054,65.0244789 C457.181452,62.0123869 464.862307,60.7953108 471.659885,63.213248 C480.010161,66.1834579 491.298215,81.4730829 492.272973,90.2574792 C493.24773,99.0418755 489.725987,107.996892 483.789481,114.561176 C477.852976,121.12546 464.265426,118.476943 455.714552,120.812183 C460.913005,113.477884 457.486479,100.151259 449.158649,96.7263287 L448.89956,99.3013062 Z" id="Path" fill="#56534D"></path>
                <ellipse id="Oval" fill="#C3CED9" cx="271.875" cy="314.213198" rx="47.8618421" ry="49.2385787"></ellipse>
                <path d="M242.183341,261.928934 C228.665338,261.928934 216.413045,253.747882 210.913235,241.047269 L135.153054,65.5725128 C128.314813,49.7340427 130.578298,31.301922 141.030683,17.7095328 C151.483067,4.1171435 168.400924,-2.39435259 184.96155,0.801027593 C201.522175,3.99640778 214.994995,16.3717985 219.946634,32.936401 L274.806164,216.456567 C277.991167,227.109039 276.074645,238.683883 269.640992,247.651645 C263.207339,256.619406 253.019268,261.916953 242.183372,261.928934 L242.183341,261.928934 Z" id="Path" fill="#C3CED9"></path>
            </g>
        </g>
    </g>
</svg>