<?xml version="1.0" encoding="UTF-8"?>
<svg width="514px" height="551px" viewBox="0 0 514 551" version="1.1" xmlns="http://www.w3.org/2000/svg" xmlns:xlink="http://www.w3.org/1999/xlink">
    <title>undraw_Web_search_re_efla</title>
    <g id="Page-1" stroke="none" stroke-width="1" fill="none" fill-rule="evenodd">
        <g id="Artboard" transform="translate(-193.000000, -131.000000)" fill-rule="nonzero">
            <g id="undraw_Web_search_re_efla" transform="translate(194.485527, 132.715940)">
                <path d="M312.993043,201.72407 L312.993043,176.72407 C312.993043,158.222531 327.991504,143.22407 346.493043,143.22407 C364.994582,143.22407 379.993043,158.222531 379.993043,176.72407 L379.993043,201.72407 C379.990243,204.208191 377.977164,206.221271 375.493043,206.22407 L317.493043,206.22407 C315.008922,206.221271 312.995843,204.208191 312.993043,201.72407 Z" id="Path" fill="#2B2A26"></path>
                <path d="M347.493043,144.72407 C357.963384,144.72407 367.394314,149.174319 373.997511,156.286494 C379.988487,162.739258 383.651773,171.383226 383.651773,180.8828 C383.651773,190.854268 383.651773,198.332868 383.651773,203.318602" id="Path" stroke="#2B2A26"></path>
                <polygon id="Path" fill="#BC9084" points="396.028473 527.07006 384.212473 530.34006 365.976473 486.32206 383.415473 481.49606"></polygon>
                <path d="M376.665361,527.862645 L400.309231,527.862645 L400.309231,542.749515 L361.778501,542.749515 L361.778501,542.749515 C361.778501,538.801272 363.346929,535.014738 366.138757,532.222908 C368.930586,529.431079 372.717118,527.862645 376.665361,527.862645 Z" id="Path" fill="#2B2A26" transform="translate(381.043866, 535.306080) rotate(-15.469510) translate(-381.043866, -535.306080) "></path>
                <polygon id="Path" fill="#BC9084" points="272.842473 536.15906 260.582473 536.15906 254.749473 488.87106 272.844473 488.87106"></polygon>
                <path d="M251.825123,532.65567 L275.468993,532.65567 L275.468993,547.54254 L236.938263,547.54254 L236.938263,547.54254 C236.938263,543.594298 238.506692,539.807764 241.29852,537.015934 C244.090348,534.224104 247.876881,532.65567 251.825123,532.65567 Z" id="Path" fill="#2B2A26"></path>
                <path d="M265.540895,275.93406 C268.511567,276.111113 271.408086,274.963256 273.451063,272.79935 L306.041243,287.45742 L303.076813,269.12586 L272.583113,258.01672 C268.633667,254.754016 262.868091,254.960897 259.162647,258.498275 C255.457202,262.035653 254.983112,267.785428 258.059113,271.88196 C259.830551,274.273229 262.570223,275.757007 265.540895,275.93406 Z" id="Path" fill="#BC9084"></path>
                <path d="M325.773273,382.12009 C315.534023,382.12009 304.934163,380.5947 296.024493,376.05857 C286.463282,371.286486 279.321824,362.747557 276.315753,352.49314 C271.673423,337.79392 277.526693,323.353 283.187093,309.38814 C286.694663,300.73433 290.007653,292.56099 290.867273,284.50435 L291.167563,281.64399 C292.506433,268.79634 293.662683,257.70064 300.064563,253.53899 C303.382923,251.38177 307.844353,251.25872 313.705193,253.16199 L368.750113,271.04334 L366.726183,375.53357 L366.391713,375.64539 C366.103603,375.74216 346.699053,382.12009 325.773273,382.12009 Z" id="Path" fill="#50667C"></path>
                <path d="M312.742993,220.63225 C312.742993,220.63225 339.742993,212.63225 360.742993,215.63225 C360.742993,215.63225 348.742993,281.63225 352.742993,303.63225 C356.742993,325.63225 283.242993,312.13225 298.242993,291.13225 L303.242993,266.13225 C303.242993,266.13225 293.242993,256.13225 302.242993,244.13225 L312.742993,220.63225 Z" id="Path" fill="#D3DEC3"></path>
                <path d="M306.718475,254.06789 L317.845006,227.282326 C321.903357,221.207758 323.932533,218.170474 323.932533,218.170474 C333.722243,216.140763 348.040903,213.817666 360.742993,215.63225" id="Path" stroke="#FFFFFF" fill="#D3DEC3"></path>
                <path d="M299.462733,380.13913 L266.186363,373.89987 L277.804043,284.49314 C278.585293,281.99704 296.582113,225.35007 304.755703,222.28514 C310.690393,220.19514 316.759668,218.508997 322.921963,217.23826 L324.105793,217.00145 L317.433433,227.01024 L290.868983,290.66453 L299.462733,380.13913 Z" id="Path" fill="#50667C"></path>
                <path d="M282.124103,525.20261 L239.129233,518.03708 L263.257403,419.51316 L299.160723,284.77585 L299.514973,287.16843 C299.543053,287.34665 302.897053,304.94821 352.665613,297.13816 L353.103353,297.0698 L353.224203,297.49607 L413.376303,510.03366 L364.385823,518.19866 L319.702963,363.13181 L282.124103,525.20261 Z" id="Path" fill="#50667C"></path>
                <path d="M341.716393,396.87058 L341.743243,396.11423 C341.773243,395.27439 344.731243,311.74167 343.743243,278.14694 C342.751793,244.43794 353.665123,215.24607 353.775473,214.95505 L353.864343,214.72067 L354.105553,214.65134 C368.225183,210.61765 380.474453,222.65671 380.596553,222.77878 L380.768663,222.95066 L376.747423,256.12692 L393.963493,376.76853 L341.716393,396.87058 Z" id="Path" fill="#50667C"></path>
                <circle id="Oval" fill="#BC9084" cx="339.609133" cy="181.08107" r="24.56103"></circle>
                <path d="M305.067753,178.72407 C305.084286,164.095378 316.939061,152.240603 331.567753,152.22407 L336.567993,152.22407 C351.196644,152.240609 363.051347,164.095419 363.067753,178.72407 L363.067753,179.22407 L352.501103,179.22407 L348.897103,169.13228 L348.176403,179.22407 L342.715463,179.22407 L340.897103,174.13228 L340.533333,179.22407 L305.067753,179.22407 L305.067753,178.72407 Z" id="Path" fill="#2B2A26"></path>
                <path d="M300.1022,179.294924 C302.0122,164.872069 314.348954,153.740956 329.289975,153.72407" id="Path" stroke="#2B2A26"></path>
                <path d="M337.191993,209.03536 C336.179659,207.664474 336.042705,205.834667 336.839693,204.32836 C342.138283,194.25023 349.556983,175.62816 339.709813,164.14379 L339.002053,163.31859 L367.589453,163.31859 L367.589453,206.23848 L341.619973,210.82048 C341.357056,210.867007 341.090585,210.8908 340.823583,210.8908 C339.385484,210.8908 338.034745,210.20065 337.191993,209.03536 Z" id="Path" fill="#2B2A26"></path>
                <path d="M199.417733,212.7581 C163.389084,255.456466 99.5682295,260.863342 56.8698622,224.834695 C14.1714948,188.806047 8.76461723,124.985193 44.793263,82.2868241 C80.8219087,39.5884555 144.642763,34.1815758 187.341133,70.2102202 L187.341193,70.2102202 C207.845669,87.5117938 220.63731,112.250112 222.9021,138.983026 C225.166891,165.715941 216.719311,192.253628 199.417733,212.7581 L199.417733,212.7581 Z" id="Path" fill="#FFFFFF"></path>
                <path d="M222.094493,31.8304302 C166.33914,-15.2167628 83.2951484,-9.46696292 34.5556403,44.8152452 C-14.1838677,99.0974533 -10.9905218,182.278985 41.7671967,232.664707 C94.5249152,283.050428 177.765308,282.416556 229.749583,231.23323 L395.367683,370.98098 C400.615181,375.417461 408.465597,374.760003 412.902078,369.512505 C417.338559,364.265008 416.681101,356.414591 411.433603,351.97811 L411.415293,351.96267 L245.797123,212.21489 C285.669726,154.989202 275.3973,76.812812 222.094493,31.8304302 Z M211.417733,198.7581 C175.389084,241.456466 111.56823,246.863342 68.8698622,210.834695 C26.1714948,174.806047 20.7646172,110.985193 56.793263,68.2868241 C92.8219087,25.5884555 156.642763,20.1815758 199.341133,56.2102202 L199.341193,56.2102202 C219.845669,73.5117938 232.63731,98.2501123 234.9021,124.983026 C237.166891,151.715941 228.719311,178.253628 211.417733,198.7581 L211.417733,198.7581 Z" id="Shape" stroke="#000000" stroke-width="2.4"></path>
                <path d="M355.838822,313.154179 C358.236643,311.391588 359.73059,308.65744 359.918673,305.68744 L394.351673,296.12996 L380.354813,283.92651 L349.802483,294.87337 C344.679605,294.8884 340.377618,298.73271 339.788864,303.821666 C339.200111,308.910622 342.510692,313.635648 347.494813,314.81998 C350.385618,315.526749 353.441001,314.916771 355.838822,313.154179 Z" id="Path" fill="#BC9084"></path>
                <path d="M361.806483,309.7612 L359.711023,289.85498 L388.473473,273.98584 L369.721033,251.28565 L372.780813,225.7861 L380.400683,222.52048 L380.637753,222.82517 C384.230753,227.44528 415.742973,268.10593 415.742973,273.1323 C415.742973,278.29489 409.714413,293.45554 401.466603,297.57956 C393.510793,301.55756 363.635793,309.28903 362.367973,309.61667 L361.806483,309.7612 Z" id="Path" fill="#50667C"></path>
                <path d="M511.047153,548.8779 L130.047153,548.8779 C129.494868,548.8779 129.047153,548.430185 129.047153,547.8779 C129.047153,547.325615 129.494868,546.8779 130.047153,546.8779 L511.047153,546.8779 C511.599438,546.8779 512.047153,547.325615 512.047153,547.8779 C512.047153,548.430185 511.599438,548.8779 511.047153,548.8779 Z" id="Path" fill="#2B2A26"></path>
            </g>
        </g>
    </g>
</svg>